<svg width="36" height="30" viewBox="0 0 36 30" fill="none" xmlns="http://www.w3.org/2000/svg">
<path fill-rule="evenodd" clip-rule="evenodd" d="M9.72454 0H18.451H27.1774L31.5642 7.5L35.951 15L31.5642 22.5L27.1774 30H18.451H9.72454L5.33775 22.5L0.950958 15L5.33775 7.5L9.72454 0V0ZM18.451 4.23913C24.4415 4.23913 29.3 9.03727 29.3 14.9534C29.3 20.8696 24.4415 25.6677 18.451 25.6677C12.4604 25.6677 7.6019 20.8696 7.6019 14.9534C7.6019 9.03727 12.4604 4.23913 18.451 4.23913Z" fill="#FEFEFE"/>
<path fill-rule="evenodd" clip-rule="evenodd" d="M18.4982 8.99052C21.8472 8.99052 24.5359 11.6458 24.5359 14.9533C24.5359 18.2607 21.8472 20.916 18.4982 20.916C15.1491 20.916 12.4605 18.2607 12.4605 14.9533C12.4605 11.6458 15.1491 8.99052 18.4982 8.99052Z" fill="#60BB22"/>
<path d="M14.1115 12.0188C15.7624 9.64298 19.0643 9.03739 21.47 10.6678C23.8756 12.2983 24.4888 15.5591 22.8379 17.9349C21.1869 20.3107 17.8851 20.9163 15.4794 19.2858C13.0737 17.6554 12.4605 14.3945 14.1115 12.0188Z" fill="#FEFEFE"/>
<path d="M15.9041 18.68C13.8758 17.2825 13.357 14.4409 14.7721 12.4378C16.1872 10.3881 19.0174 9.87569 21.0928 11.2732C23.1683 12.7173 23.6872 15.4192 22.2721 17.4689C20.8098 19.5185 18.0268 20.031 15.9513 18.6334L15.9041 18.68Z" fill="#60BB22"/>
<path d="M16.7522 17.4225C15.3843 16.4908 15.0069 14.6275 15.9503 13.2766C16.8937 11.9256 18.7805 11.5995 20.1484 12.4846C21.5163 13.4163 21.8937 15.2797 20.9503 16.6306C20.0069 18.0281 18.1201 18.3542 16.7522 17.4225Z" fill="#20863D"/>
<path d="M21.0456 13.0902C21.1399 13.6027 20.8097 14.0685 20.2909 14.1617C19.772 14.2548 19.3003 13.9288 19.206 13.4163C19.1116 12.9039 19.4418 12.4381 19.9607 12.3449C20.4795 12.2517 20.9512 12.5778 21.0456 13.0902Z" fill="#FEFEFE"/>
<path d="M19.7247 14.6273C19.7719 14.9068 19.5832 15.2329 19.3002 15.2795C19.0172 15.326 18.687 15.1397 18.6398 14.8602C18.5927 14.5807 18.7813 14.2546 19.0644 14.208C19.3474 14.1614 19.6776 14.3478 19.7247 14.6273Z" fill="#FEFEFE"/>
</svg>
