<svg width="32" height="34" viewBox="0 0 32 34" fill="none" xmlns="http://www.w3.org/2000/svg">
<path d="M2.0332 31V25.3574H2.07422L4.22461 30.2207H5.14453L7.28906 25.3574H7.33594V31H8.42578V23.002H7.23047L4.70508 28.8496H4.67578L2.14453 23.002H0.949219V31H2.0332ZM15.2109 29.9629H11.502V27.4258H15V26.4297H11.502V24.0391H15.2109V23.002H10.3008V31H15.2109V29.9629ZM17.959 31V25.0469H17.9941L21.8613 31H22.957V23.002H21.7852V28.9434H21.75L17.8887 23.002H16.793V31H17.959ZM25.9219 23.002H24.7148V28.2051C24.7148 29.9746 25.957 31.1641 27.8086 31.1641C29.666 31.1641 30.9082 29.9922 30.9082 28.2227V23.002H29.707V28.1641C29.707 29.3594 28.957 30.1035 27.8086 30.1035C26.6543 30.1035 25.9219 29.3652 25.9219 28.1641V23.002Z" fill="white"/>
<path fill-rule="evenodd" clip-rule="evenodd" d="M1 1C1 0.447708 1.44772 0 2 0H30C30.5523 0 31 0.447708 31 1C31 1.55229 30.5523 2 30 2H2C1.44772 2 1 1.55229 1 1ZM1 8C1 7.44771 1.44772 7 2 7H30C30.5523 7 31 7.44771 31 8C31 8.55229 30.5523 9 30 9H2C1.44772 9 1 8.55229 1 8ZM2 14C1.44772 14 1 14.4477 1 15C1 15.5523 1.44772 16 2 16H30C30.5523 16 31 15.5523 31 15C31 14.4477 30.5523 14 30 14H2Z" fill="white"/>
</svg>
