<svg width="21" height="18" viewBox="0 0 42 36" fill="#ffffff" xmlns="http://www.w3.org/2000/svg">
<path fill-rule="evenodd" clip-rule="evenodd" d="M10.5283 0H21H31.4717L36.7359 9L42 18L36.7359 27L31.4717 36H21H10.5283L5.26415 27L0 18L5.26415 9L10.5283 0ZM21 5.08696C28.1887 5.08696 34.0189 10.8447 34.0189 17.9441C34.0189 25.0435 28.1887 30.8012 21 30.8012C13.8113 30.8012 7.98113 25.0435 7.98113 17.9441C7.98113 10.8447 13.8113 5.08696 21 5.08696Z" fill="#FFFFFF"/>
<path d="M22.875 14.3839L20.375 11.9732L22.875 9.5625" stroke="#FFFFFF" stroke-width="1.5" stroke-linecap="round" stroke-linejoin="round"/>
<path d="M19.0859 21.616L21.5859 24.0267L19.0859 26.4374" stroke="#FFFFFF" stroke-width="1.5" stroke-linecap="round" stroke-linejoin="round"/>
<path d="M15.375 13.7814C16.4105 13.7814 17.25 12.9719 17.25 11.9733C17.25 10.9748 16.4105 10.1653 15.375 10.1653C14.3395 10.1653 13.5 10.9748 13.5 11.9733C13.5 12.9719 14.3395 13.7814 15.375 13.7814Z" stroke="#FFFFFF" stroke-width="1.5" stroke-linecap="round" stroke-linejoin="round"/>
<path d="M26.625 25.8348C27.6605 25.8348 28.5 25.0253 28.5 24.0268C28.5 23.0282 27.6605 22.2188 26.625 22.2188C25.5895 22.2188 24.75 23.0282 24.75 24.0268C24.75 25.0253 25.5895 25.8348 26.625 25.8348Z" stroke="#FFFFFF" stroke-width="1.5" stroke-linecap="round" stroke-linejoin="round"/>
<path d="M21 11.9731H24.2812C24.9029 11.9731 25.499 12.2113 25.9385 12.6351C26.3781 13.0589 26.625 13.6338 26.625 14.2332V22.2187" stroke="#FFFFFF" stroke-width="1.5" stroke-linecap="round" stroke-linejoin="round"/>
<path d="M20.9609 24.0268H17.6797C17.0581 24.0268 16.4619 23.7887 16.0224 23.3648C15.5829 22.941 15.3359 22.3661 15.3359 21.7667V13.7812" stroke="#FFFFFF" stroke-width="1.5" stroke-linecap="round" stroke-linejoin="round"/>
</svg>
