<svg width="42" height="36" viewBox="0 0 42 36" fill="none" xmlns="http://www.w3.org/2000/svg">
<path fill-rule="evenodd" clip-rule="evenodd" d="M10.5283 0H21H31.4717L36.7359 9L42 18L36.7359 27L31.4717 36H21H10.5283L5.26415 27L0 18L5.26415 9L10.5283 0ZM21 5.08696C28.1887 5.08696 34.0189 10.8447 34.0189 17.9441C34.0189 25.0435 28.1887 30.8012 21 30.8012C13.8113 30.8012 7.98113 25.0435 7.98113 17.9441C7.98113 10.8447 13.8113 5.08696 21 5.08696Z" fill="#FF6700"/>
<path fill-rule="evenodd" clip-rule="evenodd" d="M24.286 8.66812C24.2029 8.27359 23.8468 7.99235 23.4393 8.00016H18.3749C17.9674 7.99235 17.6113 8.27359 17.5322 8.66812L16.8556 11.4181H24.9823L24.286 8.66812ZM16.8358 24.5819L17.5282 27.3319C17.6113 27.7264 17.9634 28.0076 18.371 27.9998H23.4353C23.8429 28.0076 24.199 27.7264 24.2781 27.3319L24.9546 24.5819H16.8358ZM17.5322 12.1681H24.282C25.6827 12.1681 26.8142 13.2852 26.8182 14.668V21.3359C26.8182 22.7148 25.6827 23.8358 24.286 23.8358H17.5322C16.1355 23.8358 15 22.7148 15 21.3359V14.668C15 13.2891 16.1355 12.1681 17.5322 12.1681ZM17.5322 18C17.5322 18.457 17.9081 18.832 18.3749 18.832C18.8418 18.832 19.2177 18.4609 19.2177 18C19.2177 17.543 18.8418 17.168 18.3749 17.168C17.912 17.168 17.5322 17.5391 17.5322 18ZM20.0644 18C20.0644 18.457 20.4402 18.832 20.9071 18.832C21.374 18.832 21.7499 18.4609 21.7499 18C21.7499 17.543 21.374 17.168 20.9071 17.168C20.4442 17.168 20.0644 17.5391 20.0644 18ZM22.5966 18C22.5966 18.457 22.9724 18.832 23.4393 18.832C23.9062 18.832 24.282 18.4609 24.282 18C24.282 17.543 23.9062 17.168 23.4393 17.168C22.9764 17.168 22.5966 17.5391 22.5966 18Z" fill="#FF6700"/>
</svg>
