<svg width="42" height="36" viewBox="0 0 42 36" fill="none" xmlns="http://www.w3.org/2000/svg">
<path fill-rule="evenodd" clip-rule="evenodd" d="M10.5283 0H21H31.4717L36.7359 9L42 18L36.7359 27L31.4717 36H21H10.5283L5.26415 27L0 18L5.26415 9L10.5283 0ZM21 5.08696C28.1887 5.08696 34.0189 10.8447 34.0189 17.9441C34.0189 25.0435 28.1887 30.8012 21 30.8012C13.8113 30.8012 7.98113 25.0435 7.98113 17.9441C7.98113 10.8447 13.8113 5.08696 21 5.08696Z" fill="#FF6700"/>
<path d="M29.2359 20.0816V19.4331V15.5408V11.6484C29.2359 11.2922 28.9014 11 28.4919 11H13.6055C13.1961 11 12.8606 11.2908 12.8606 11.6484V15.5408V19.4331V20.0816L11 22.0277C11 22.5639 11.4996 23 12.1165 23H29.9809C30.5969 23 31.0974 22.5637 31.0974 22.0277L29.2359 20.0816ZM22.5384 22.6768H19.5606C19.4578 22.6768 19.3744 22.6048 19.3744 22.5145C19.3744 22.4242 19.4578 22.3522 19.5606 22.3522H22.5387C22.6406 22.3522 22.7249 22.4242 22.7249 22.5145C22.7221 22.605 22.6404 22.6768 22.5384 22.6768ZM17.9805 22.0284L18.5484 21.4343H23.5478L24.1167 22.0284H17.9805ZM28.1884 18.9343C28.1884 19.2472 27.896 19.5004 27.5395 19.5004H14.5577C14.2012 19.5004 13.9088 19.2449 13.9088 18.9343V12.1485C13.9088 11.8356 14.2012 11.5824 14.5577 11.5824H27.5397C27.8962 11.5824 28.1886 11.8372 28.1886 12.1485C28.1884 12.1485 28.1884 18.9343 28.1884 18.9343Z" fill="#FF6700"/>
</svg>
