<svg width="42" height="36" viewBox="0 0 42 36" fill="none" xmlns="http://www.w3.org/2000/svg">
<path fill-rule="evenodd" clip-rule="evenodd" d="M10.5283 0H21H31.4717L36.7359 9L42 18L36.7359 27L31.4717 36H21H10.5283L5.26415 27L0 18L5.26415 9L10.5283 0ZM21 5.08696C28.1887 5.08696 34.0189 10.8447 34.0189 17.9441C34.0189 25.0435 28.1887 30.8012 21 30.8012C13.8113 30.8012 7.98113 25.0435 7.98113 17.9441C7.98113 10.8447 13.8113 5.08696 21 5.08696Z" fill="#FF6700"/>
<path fill-rule="evenodd" clip-rule="evenodd" d="M26.3972 10H15.5119C14.6772 10.001 14.001 10.6799 14 11.5179V23.9979C14.397 23.5881 14.9424 23.357 15.5119 23.3571H26.3972C26.9667 23.357 27.5121 23.5881 27.9091 23.9979V11.5179C27.9081 10.6799 27.2319 10.001 26.3972 10ZM15.8142 25.4821C15.8142 25.6498 15.6788 25.7857 15.5119 25.7857C15.3449 25.7857 15.2095 25.6498 15.2095 25.4821C15.2095 25.3145 15.3449 25.1786 15.5119 25.1786C15.6788 25.1786 15.8142 25.3145 15.8142 25.4821ZM26.6996 25.1786H24.8854V25.7857H26.6996V25.1786ZM21.2569 25.4106L21.4438 25.7857H22.8842L23.0711 25.4106V25.1786H21.2569V25.4106ZM15.5119 23.9643H26.3972C27.2322 23.9643 27.9091 24.6439 27.9091 25.4821C27.9091 26.3203 27.2322 27 26.3972 27H15.5119C14.6769 27 14 26.3203 14 25.4821C14 24.6439 14.6769 23.9643 15.5119 23.9643ZM14.6047 25.4821C14.6047 25.9851 15.0109 26.3928 15.5119 26.3928C16.0128 26.3928 16.419 25.9851 16.419 25.4821C16.419 24.9792 16.0128 24.5714 15.5119 24.5714C15.0109 24.5714 14.6047 24.9792 14.6047 25.4821ZM17.0237 25.7857H17.6285V25.1785H17.0237V25.7857ZM18.2332 25.7857H18.8379V25.1785H18.2332V25.7857ZM19.4427 25.7857H20.0474V25.1785H19.4427V25.7857ZM23.6456 25.6177C23.666 25.5755 23.6763 25.5291 23.6759 25.4821V24.875C23.6759 24.7073 23.5405 24.5714 23.3735 24.5714H20.9545C20.7876 24.5714 20.6522 24.7073 20.6522 24.875V25.4821C20.6517 25.5291 20.6621 25.5755 20.6824 25.6177L20.9848 26.2249C21.0362 26.3284 21.1418 26.3934 21.2569 26.3928H23.0711C23.1863 26.3934 23.2919 26.3284 23.3433 26.2249L23.6456 25.6177ZM27.002 26.3928C27.169 26.3928 27.3043 26.2569 27.3043 26.0893V24.875C27.3043 24.7073 27.169 24.5714 27.002 24.5714H24.583C24.416 24.5714 24.2806 24.7073 24.2806 24.875V26.0893C24.2806 26.2569 24.416 26.3928 24.583 26.3928H27.002Z" fill="#FF6700"/>
</svg>
