<svg width="42" height="36" viewBox="0 0 42 36" fill="none" xmlns="http://www.w3.org/2000/svg">
<path d="M19.3482 20.3571V15.866L23.6696 18.1249L19.3482 20.3571ZM21 12.6606C17.6339 12.6606 15.4017 12.8214 15.4017 12.8214C15.0892 12.8571 14.4017 12.8571 13.7946 13.4999C13.7946 13.4999 13.3035 13.9821 13.1607 15.0892C12.991 16.3839 13 17.6785 13 17.6785V18.8928C13 18.8928 12.991 20.1874 13.1607 21.4821C13.3035 22.5803 13.7946 23.0714 13.7946 23.0714C14.4017 23.7053 15.2053 23.6874 15.5625 23.7499C15.5625 23.7499 16.8392 23.8749 21 23.9106C24.366 23.9106 26.5982 23.741 26.5982 23.741C26.9107 23.7053 27.5982 23.7053 28.2053 23.0714C28.2053 23.0714 28.6964 22.5803 28.8392 21.4821C29.0089 20.1874 29 18.8928 29 18.8928V17.6785C29 17.6785 29.0089 16.3839 28.8392 15.0892C28.6964 13.9821 28.2053 13.4999 28.2053 13.4999C27.5982 12.8571 26.9107 12.8571 26.5982 12.8214C26.5982 12.8214 24.366 12.6606 21 12.6606Z" fill="#F9920F"/>
<path fill-rule="evenodd" clip-rule="evenodd" d="M10.5283 0H21H31.4717L36.7359 9L42 18L36.7359 27L31.4717 36H21H10.5283L5.26415 27L0 18L5.26415 9L10.5283 0V0ZM21 5.08696C28.1887 5.08696 34.0189 10.8447 34.0189 17.9441C34.0189 25.0435 28.1887 30.8012 21 30.8012C13.8113 30.8012 7.98113 25.0435 7.98113 17.9441C7.98113 10.8447 13.8113 5.08696 21 5.08696Z" fill="#F9920F"/>
</svg>
