<svg width="42" height="36" viewBox="0 0 42 36" fill="none" xmlns="http://www.w3.org/2000/svg">
<path fill-rule="evenodd" clip-rule="evenodd" d="M10.5283 0H21H31.4717L36.7359 9L42 18L36.7359 27L31.4717 36H21H10.5283L5.26415 27L0 18L5.26415 9L10.5283 0ZM21 5.08696C28.1887 5.08696 34.0189 10.8447 34.0189 17.9441C34.0189 25.0435 28.1887 30.8012 21 30.8012C13.8113 30.8012 7.98113 25.0435 7.98113 17.9441C7.98113 10.8447 13.8113 5.08696 21 5.08696Z" fill="#FF6700"/>
<path d="M14.125 15.4375H24.75V14.375H14.125V15.4375ZM19.9688 21.8125H23.6875V20.75H19.9688V21.8125ZM19.9688 19.6875H24.75V18.625H19.9688V19.6875ZM19.9688 17.5625H24.75V16.5H19.9688V17.5625ZM14.125 21.8125H18.9062V16.5H14.125V21.8125ZM26.875 13.3125V11.1875H12V22.875C12 22.875 12 25 14.125 25H27.4062C27.4062 25 29 24.9671 29 22.875V13.3125H26.875ZM14.125 23.9375C13.0625 23.9375 13.0625 22.875 13.0625 22.875V12.25H25.8125V22.875C25.8125 23.3643 25.9634 23.7027 26.1716 23.9375H14.125Z" fill="#FF6700"/>
</svg>
