<svg width="27" height="27" viewBox="0 0 27 27" fill="none" xmlns="http://www.w3.org/2000/svg">
<g clip-path="url(#clip0_3:368)">
<path d="M7.48693 0.907588C7.0616 0.416578 6.46879 0.101405 5.82388 0.0234231C5.17897 -0.0545587 4.52812 0.110231 3.99802 0.485713C2.85701 1.30852 1.78602 2.2243 0.795989 3.22368C-2.36385 6.38352 4.55911 16.112 7.72318 19.276C10.3219 21.8748 17.3504 27.0006 21.5143 27.0006C21.9233 27.0241 22.3329 26.9649 22.7186 26.8264C23.1042 26.688 23.458 26.4731 23.7586 26.1948C24.7568 25.2036 25.6725 24.1328 26.4966 22.9927C26.8721 22.4626 27.0369 21.8118 26.9589 21.1669C26.8809 20.522 26.5658 19.9292 26.0747 19.5038C24.518 18.1707 20.7507 15.2176 19.4302 16.5507C18.4936 17.4915 16.0004 19.9848 14.6968 18.6854L8.31802 12.2856C7.01865 10.982 9.51193 8.48868 10.4527 7.55212C11.7732 6.23165 8.82005 2.46431 7.48693 0.907588ZM6.84568 1.45181C9.26724 4.28681 10.2924 6.51431 9.85365 6.93618C9.67224 7.12181 9.43177 7.35806 9.18708 7.62384L4.54646 1.13962C4.90262 0.904709 5.33187 0.80689 5.75465 0.864295C6.17742 0.921699 6.56505 1.13043 6.84568 1.45181ZM20.0461 17.1456C20.468 16.7237 22.7124 17.732 25.5305 20.1535C25.843 20.4282 26.0485 20.8043 26.1111 21.2156C26.1736 21.6269 26.089 22.047 25.8722 22.4021L19.6201 17.5632L20.0461 17.1456ZM7.72318 12.8804L14.1188 19.276C15.684 20.8412 17.9494 19.1242 19.3121 17.8543L25.6402 22.7481C24.8992 23.7605 24.0842 24.7165 23.2018 25.6084C20.8688 27.9371 12.1697 22.5034 8.33911 18.6812C4.50849 14.859 -0.937917 6.15149 1.39083 3.81853C2.27124 2.93932 3.21605 2.12706 4.2174 1.38853L8.89599 7.95712C7.66833 9.33665 6.25927 11.4165 7.72318 12.8804Z" fill="white"/>
<path d="M13.5 0C13.3881 0 13.2808 0.0444474 13.2017 0.123564C13.1226 0.202681 13.0781 0.309987 13.0781 0.421875C13.0781 0.533763 13.1226 0.641069 13.2017 0.720186C13.2808 0.799303 13.3881 0.84375 13.5 0.84375C16.8566 0.84375 20.0758 2.17717 22.4493 4.55068C24.8228 6.92419 26.1562 10.1434 26.1562 13.5C26.1562 13.6119 26.2007 13.7192 26.2798 13.7983C26.3589 13.8774 26.4662 13.9219 26.5781 13.9219C26.69 13.9219 26.7973 13.8774 26.8764 13.7983C26.9556 13.7192 27 13.6119 27 13.5C27 9.91958 25.5777 6.4858 23.0459 3.95406C20.5142 1.42232 17.0804 0 13.5 0V0Z" fill="white"/>
<path d="M24.397 12.6563H24.4434C24.554 12.6435 24.6551 12.5876 24.7246 12.5007C24.7942 12.4138 24.8265 12.3029 24.8147 12.1922C24.53 9.63682 23.3848 7.25423 21.5671 5.43576C19.7494 3.61728 17.3673 2.47104 14.812 2.18531C14.7566 2.17922 14.7006 2.1841 14.647 2.19967C14.5935 2.21524 14.5436 2.2412 14.5001 2.27606C14.4123 2.34648 14.356 2.4489 14.3437 2.56078C14.3314 2.67267 14.3641 2.78487 14.4345 2.87269C14.5049 2.96051 14.6073 3.01676 14.7192 3.02906C17.0829 3.29202 19.2868 4.35116 20.9689 6.03246C22.651 7.71377 23.7111 9.91722 23.9751 12.2808C23.9866 12.3844 24.0361 12.4802 24.114 12.5495C24.1919 12.6189 24.2927 12.6569 24.397 12.6563Z" fill="white"/>
<path d="M21.5874 11.0911C21.6034 11.1443 21.6298 11.1938 21.665 11.2368C21.7002 11.2798 21.7435 11.3154 21.7925 11.3416C21.8415 11.3679 21.8951 11.3842 21.9504 11.3897C22.0057 11.3953 22.0615 11.3898 22.1147 11.3738C22.1679 11.3577 22.2174 11.3313 22.2604 11.2961C22.3034 11.2609 22.339 11.2176 22.3652 11.1686C22.3915 11.1197 22.4078 11.066 22.4133 11.0107C22.4189 10.9554 22.4134 10.8996 22.3974 10.8464C21.9326 9.29587 21.0714 7.89344 19.8986 6.77769C18.7259 5.66195 17.2824 4.87153 15.7106 4.48453C15.6038 4.46246 15.4926 4.4826 15.4004 4.54074C15.3081 4.59887 15.2419 4.69048 15.2157 4.79635C15.1895 4.90222 15.2053 5.01411 15.2599 5.10857C15.3144 5.20302 15.4034 5.2727 15.5081 5.30297C16.9375 5.65531 18.2502 6.3746 19.3164 7.38974C20.3826 8.40488 21.1654 9.68071 21.5874 11.0911Z" fill="white"/>
<path d="M14.3437 9.28125C14.3437 8.8337 14.1659 8.40448 13.8495 8.08801C13.533 7.77154 13.1038 7.59375 12.6562 7.59375C12.2087 7.59375 11.7794 7.77154 11.463 8.08801C11.1465 8.40448 10.9687 8.8337 10.9687 9.28125C10.9687 9.39314 11.0132 9.50044 11.0923 9.57956C11.1714 9.65868 11.2787 9.70312 11.3906 9.70312C11.5025 9.70312 11.6098 9.65868 11.6889 9.57956C11.768 9.50044 11.8125 9.39314 11.8125 9.28125C11.8125 9.05747 11.9014 8.84286 12.0596 8.68463C12.2178 8.52639 12.4324 8.4375 12.6562 8.4375C12.88 8.4375 13.0946 8.52639 13.2528 8.68463C13.4111 8.84286 13.5 9.05747 13.5 9.28125C13.5 10.0364 12.0614 11.2767 11.1543 11.8842C11.0792 11.9347 11.0223 12.008 10.9921 12.0933C10.9618 12.1785 10.9598 12.2713 10.9862 12.3578C11.0127 12.4444 11.0663 12.5201 11.1391 12.5738C11.2119 12.6276 11.3001 12.6565 11.3906 12.6562H13.9218C14.0337 12.6562 14.141 12.6118 14.2202 12.5327C14.2993 12.4536 14.3437 12.3463 14.3437 12.2344C14.3437 12.1225 14.2993 12.0152 14.2202 11.9361C14.141 11.8569 14.0337 11.8125 13.9218 11.8125H12.6562C13.4156 11.1502 14.3437 10.1756 14.3437 9.28125Z" fill="white"/>
<path d="M17.7188 12.6562C17.8306 12.6562 17.9379 12.6118 18.0171 12.5327C18.0962 12.4536 18.1406 12.3463 18.1406 12.2344V8.01562C18.1406 7.90374 18.0962 7.79643 18.0171 7.71731C17.9379 7.6382 17.8306 7.59375 17.7188 7.59375C17.6069 7.59375 17.4996 7.6382 17.4204 7.71731C17.3413 7.79643 17.2969 7.90374 17.2969 8.01562V9.70312H16.4531V8.01562C16.4531 7.90374 16.4087 7.79643 16.3296 7.71731C16.2504 7.6382 16.1431 7.59375 16.0312 7.59375C15.9194 7.59375 15.8121 7.6382 15.7329 7.71731C15.6538 7.79643 15.6094 7.90374 15.6094 8.01562V9.70312C15.6094 9.9269 15.6983 10.1415 15.8565 10.2997C16.0147 10.458 16.2293 10.5469 16.4531 10.5469H17.2969V12.2344C17.2969 12.3463 17.3413 12.4536 17.4204 12.5327C17.4996 12.6118 17.6069 12.6562 17.7188 12.6562Z" fill="white"/>
<path d="M14.7656 14.3438H16.875C16.3434 15.1116 15.6094 16.3603 15.6094 17.2969C15.6094 17.4088 15.6538 17.5161 15.7329 17.5952C15.8121 17.6743 15.9194 17.7188 16.0313 17.7188C16.1431 17.7188 16.2504 17.6743 16.3296 17.5952C16.4087 17.5161 16.4531 17.4088 16.4531 17.2969C16.4531 16.3814 17.6048 14.7403 18.0478 14.1834C18.0928 14.1239 18.1212 14.0535 18.1301 13.9793C18.139 13.9052 18.1281 13.8301 18.0984 13.7616C18.0674 13.6858 18.0149 13.6208 17.9475 13.5743C17.8801 13.5279 17.8006 13.5021 17.7188 13.5H14.7656C14.6537 13.5 14.5464 13.5444 14.4673 13.6236C14.3882 13.7027 14.3438 13.81 14.3438 13.9219C14.3438 14.0338 14.3882 14.1411 14.4673 14.2202C14.5464 14.2993 14.6537 14.3438 14.7656 14.3438Z" fill="white"/>
</g>
<defs>
<clipPath id="clip0_3:368">
<rect width="27" height="27" fill="white"/>
</clipPath>
</defs>
</svg>
