<svg width="14" height="14" viewBox="0 0 14 14" fill="none" xmlns="http://www.w3.org/2000/svg">
<path d="M13.9499 0.387763C13.8505 0.159082 13.6218 0 13.3633 0H0.636704C0.378195 0 0.149514 0.159082 0.0500878 0.387763C-0.0493387 0.626387 0.000374517 0.904781 0.189285 1.08375L5.09101 5.98548V10.8176C5.09101 10.9866 5.16061 11.1457 5.27992 11.265L7.82524 13.8103C7.94455 13.9396 8.10363 13.9993 8.27266 13.9993C8.3522 13.9993 8.44168 13.9794 8.52122 13.9495C8.74991 13.8501 8.90899 13.6214 8.90899 13.3629V5.98548L13.8107 1.08375C13.9996 0.904781 14.0493 0.626387 13.9499 0.387763Z" fill="#444444"/>
</svg>
