<svg width="35" height="35" viewBox="0 0 35 35" fill="none" xmlns="http://www.w3.org/2000/svg">
<path d="M24.7734 13.9043C24.7734 13.4805 24.5137 13.1113 24.1309 12.9473C21.5605 11.8672 19.5508 9.87109 18.457 7.30078C18.293 6.9043 17.9102 6.6582 17.4863 6.6582C17.0625 6.6582 16.6934 6.9043 16.5156 7.30078C15.4355 9.85742 13.4258 11.8535 10.8691 12.9336C10.4863 13.0977 10.2266 13.4668 10.2266 13.8906C10.2266 14.3145 10.4727 14.6836 10.8555 14.8613C13.3164 15.9414 15.3672 18.0195 16.502 20.5762C16.666 20.959 17.0488 21.2051 17.459 21.2051C17.8691 21.2051 18.252 20.959 18.416 20.5625C19.4824 18.0879 21.5742 16.0098 24.1309 14.875C24.5273 14.6973 24.7734 14.3145 24.7734 13.9043ZM17.459 19.5098C16.2422 17.0762 14.2598 15.0801 11.9082 13.9043C14.3418 12.7285 16.2969 10.7871 17.4727 8.35352C18.6621 10.8008 20.6172 12.7559 23.0781 13.918C20.6445 15.1484 18.6348 17.1445 17.459 19.5098Z" fill="#444444"/>
<path d="M24.0353 24.7188C24.1584 24.7598 24.3224 24.8145 24.5275 24.8008C24.8557 24.7871 25.1564 24.6504 25.3889 24.418C25.6349 24.1719 25.7717 23.8438 25.758 23.502C25.7307 21.3418 27.0978 19.4551 29.1486 18.8125C29.2853 18.7715 29.4357 18.7031 29.5451 18.6074C29.8185 18.4024 29.9963 18.1016 30.0373 17.7871C30.092 17.4453 30.0099 17.1035 29.8049 16.8164C28.5197 15.0801 28.506 12.7559 29.7912 11.0469L29.9553 10.8555L30.0236 10.6504C30.133 10.3223 30.092 9.96681 29.9416 9.6797C29.7775 9.36525 29.5041 9.13283 29.1896 9.03712C27.1389 8.38087 25.7853 6.50783 25.799 4.36134C25.799 4.19728 25.7717 4.04689 25.7307 3.91017C25.6213 3.59572 25.3889 3.33595 25.0744 3.17189C24.7599 3.0215 24.4318 3.00783 24.1174 3.1172C23.6115 3.29494 23.092 3.37697 22.5588 3.37697C20.9865 3.37697 19.51 2.61134 18.6076 1.33986C18.5119 1.21681 18.4025 1.10744 18.3068 1.03908C17.7326 0.628922 16.926 0.76564 16.5158 1.33986C15.6135 2.62502 14.1369 3.37697 12.5646 3.37697C12.0314 3.37697 11.5119 3.29494 11.0197 3.1172C10.5822 2.96681 10.0217 3.07619 9.69355 3.43166C9.44745 3.67775 9.31073 4.00587 9.3244 4.34767C9.35175 6.50783 7.98456 8.38087 5.94745 9.02345C5.79706 9.06447 5.67401 9.13283 5.5373 9.22853C4.97675 9.65236 4.8537 10.459 5.27753 11.0332C6.56269 12.7695 6.56269 15.0938 5.27753 16.8301C5.1955 16.9395 5.12714 17.0762 5.08612 17.1992C4.99042 17.5274 5.01776 17.8555 5.18183 18.1836C5.34589 18.4844 5.61933 18.7168 5.93378 18.8125C7.98456 19.4688 9.33808 21.3555 9.31073 23.4746C9.29706 23.6387 9.3244 23.7891 9.37909 23.9395C9.48847 24.2539 9.72089 24.5137 10.0353 24.6778C10.3498 24.8281 10.6779 24.8418 10.9924 24.7324C11.5119 24.5547 12.0451 24.4727 12.5783 24.4727C14.1642 24.4727 15.5861 25.2246 16.5158 26.5235C16.5978 26.6328 16.7072 26.7422 16.8166 26.8242C17.0353 26.9883 17.2951 27.0703 17.5549 27.0703C17.6232 27.0703 17.7053 27.0703 17.7736 27.0567C18.1154 27.002 18.4162 26.8106 18.6076 26.5371C19.7834 24.7598 21.9846 24.0352 24.0353 24.7188ZM17.5139 25.7578C16.3654 24.1309 14.4924 23.1602 12.51 23.1602C11.84 23.1602 11.1701 23.2695 10.5412 23.5156C10.5822 20.7949 8.84589 18.4024 6.2619 17.6094C7.88886 15.4082 7.88886 12.4551 6.24823 10.2949C8.84589 9.4883 10.5822 7.12306 10.5685 4.38869C11.1838 4.59377 11.84 4.70314 12.4963 4.70314C14.4924 4.70314 16.3654 3.73244 17.4728 2.10548C18.6213 3.73244 20.508 4.70314 22.5041 4.70314C23.174 4.70314 23.8439 4.59377 24.4455 4.36134C24.4182 7.0547 26.1271 9.41994 28.6974 10.2676C27.0978 12.4551 27.0978 15.3672 28.6974 17.5684C26.1135 18.4024 24.3908 20.7813 24.4455 23.4746H24.4318C21.8615 22.5996 19.0451 23.5156 17.5139 25.7578Z" fill="#444444"/>
<path d="M13.248 26.4551C12.9473 26.2637 12.5371 26.3457 12.3457 26.6465L9.14648 31.541L7.38281 27.9316L3.71875 27.918L7.06836 22.791C7.27344 22.4902 7.17773 22.0801 6.87695 21.8887C6.57617 21.6836 6.16602 21.7793 5.97461 22.0801L1.29883 29.2305L6.57617 29.2441L8.99609 34.1934L13.4531 27.3574C13.6445 27.0566 13.5488 26.6465 13.248 26.4551Z" fill="#444444"/>
<path d="M29.0255 22.0665C28.8204 21.7657 28.4239 21.6837 28.1231 21.8751C27.8223 22.0801 27.7403 22.4766 27.9317 22.7774L31.295 27.918L27.6309 27.9317L25.8672 31.5411L22.6544 26.6329C22.4493 26.3321 22.0528 26.2501 21.752 26.4415C21.4512 26.6465 21.3692 27.043 21.5606 27.3438L26.0313 34.1934L28.4512 29.2442L33.7286 29.2305L29.0255 22.0665Z" fill="#444444"/>
</svg>
