<svg width="35" height="26" viewBox="0 0 35 26" fill="none" xmlns="http://www.w3.org/2000/svg">
<path d="M32.2201 4.33333H26.5964C23.6706 1.08333 22.75 0 21.6289 0H13.5625C12.4414 0 11.5391 1.08333 8.59505 4.33333H7.38281V2.88889H4.28385V4.33333H3.05339C1.44922 4.33333 0 5.525 0 7.10486V22.9938C0 24.5736 1.44922 26 3.05339 26H32.2201C33.8242 26 35 24.5736 35 22.9938V7.10486C35 5.525 33.8242 4.33333 32.2201 4.33333ZM33.5417 22.9938C33.5417 23.8333 32.9766 24.5556 32.2201 24.5556H3.05339C2.26042 24.5556 1.45833 23.7701 1.45833 22.9938V7.10486C1.45833 6.36458 2.19661 5.77778 3.05339 5.77778H8.58594H9.23307L9.67057 5.48889C10.0352 5.08264 10.3724 4.58611 10.6823 4.24306C11.7122 3.09653 12.4596 2.28403 12.9883 1.81458C13.4167 1.43542 13.5534 1.44444 13.5534 1.44444H21.6198C21.6198 1.44444 21.7656 1.43542 22.2305 1.85069C22.7865 2.34722 23.5703 3.34028 24.6549 4.54097C24.9193 4.83889 25.2018 5.15486 25.5026 5.48889L25.9401 5.77778H26.5964H32.2201C33.0221 5.77778 33.5417 6.31944 33.5417 7.10486V22.9938Z" fill="#444444"/>
<path d="M17.5 6.99652C13.207 6.99652 9.70703 10.4632 9.70703 14.7153C9.70703 18.9674 13.207 22.434 17.5 22.434C21.793 22.434 25.293 18.9674 25.293 14.7153C25.293 10.4632 21.793 6.99652 17.5 6.99652ZM17.5 20.9896C14 20.9896 11.1654 18.1819 11.1654 14.7153C11.1654 11.2486 14 8.44097 17.5 8.44097C21 8.44097 23.8346 11.2486 23.8346 14.7153C23.8346 18.1819 21 20.9896 17.5 20.9896Z" fill="#444444"/>
<path d="M27.7995 7.22223H26.25V8.75695H27.7995V7.22223Z" fill="#444444"/>
<path d="M17.4999 17.6042C19.1107 17.6042 20.4166 16.3108 20.4166 14.7153C20.4166 13.1198 19.1107 11.8264 17.4999 11.8264C15.8891 11.8264 14.5833 13.1198 14.5833 14.7153C14.5833 16.3108 15.8891 17.6042 17.4999 17.6042Z" fill="#444444"/>
</svg>
