<svg width="100" height="25" viewBox="0 0 100 25" fill="none" xmlns="http://www.w3.org/2000/svg">
<g clip-path="url(#clip0_867_6447)">
<path d="M16.5029 12.4583C16.5029 10.4861 17.6382 8.78305 19.2885 7.95456C17.8153 6.5748 15.9224 6.5 15.5861 6.5C14.6921 6.5 14.0541 6.74215 13.4377 6.97624C12.8405 7.20317 12.2764 7.41711 11.4603 7.41711C10.6441 7.41711 10.0801 7.20317 9.48286 6.97624C8.86641 6.74215 8.22847 6.5 7.33445 6.5C6.77127 6.5 1.83337 6.67993 1.83337 12.9171C1.83337 18.0174 5.31408 23 7.33445 23C8.57139 23 9.28275 22.7109 9.91085 22.4557C10.4015 22.2565 10.8259 22.0842 11.4603 22.0842C12.0946 22.0842 12.519 22.2565 13.0097 22.4562C13.6378 22.7109 14.3491 23 15.5856 23C17.0011 23 19.0167 20.5516 20.1667 17.3334C17.9957 16.771 16.5029 14.8047 16.5029 12.4583Z" fill="#1A1A1A"/>
<path d="M11.0021 6.5C13.6876 5.95 15.6126 3.73636 15.5858 1C12.9003 1.55 10.9753 3.76365 11.0021 6.5Z" fill="#1A1A1A"/>
<path opacity="0.1" d="M7.33445 6.72917C8.22847 6.72917 8.86641 6.97131 9.48286 7.2054C10.0801 7.43233 10.6441 7.64628 11.4603 7.64628C12.2764 7.64628 12.8405 7.43233 13.4377 7.2054C14.0541 6.97131 14.6921 6.72917 15.5861 6.72917C15.9102 6.72917 17.6777 6.81063 19.1245 8.05141C19.1803 8.02075 19.2315 7.98315 19.2885 7.95456C17.8153 6.5748 15.9224 6.5 15.5861 6.5C14.6921 6.5 14.0541 6.74215 13.4377 6.97624C12.8405 7.20317 12.2764 7.41711 11.4603 7.41711C10.6441 7.41711 10.0801 7.20317 9.48286 6.97624C8.86641 6.74215 8.22847 6.5 7.33445 6.5C6.77127 6.5 1.83337 6.67993 1.83337 12.9171C1.83337 12.9592 1.83813 13.0009 1.83858 13.0429C1.89588 6.9129 6.77457 6.72917 7.33445 6.72917Z" fill="white"/>
<path opacity="0.2" d="M15.5856 22.7708C14.3491 22.7708 13.6378 22.4817 13.0097 22.227C12.519 22.0274 12.0946 21.8551 11.4603 21.8551C10.8259 21.8551 10.4015 22.0274 9.91085 22.2266C9.28275 22.4817 8.57139 22.7708 7.33445 22.7708C5.33075 22.7708 1.89521 17.8697 1.83858 12.8138C1.83824 12.85 1.83337 12.8805 1.83337 12.9171C1.83337 18.0174 5.31408 23 7.33445 23C8.57139 23 9.28275 22.7109 9.91085 22.4557C10.4015 22.2566 10.8259 22.0842 11.4603 22.0842C12.0946 22.0842 12.519 22.2566 13.0097 22.4562C13.6378 22.7109 14.3491 23 15.5856 23C17.0011 23 19.0167 20.5516 20.1667 17.3334C20.1401 17.3265 20.116 17.3138 20.0895 17.3064C18.924 20.4233 16.971 22.7708 15.5856 22.7708Z" fill="black"/>
<path opacity="0.2" d="M15.5645 1.40533C15.3753 3.90888 13.5197 5.74479 11.0049 6.26796C11.0024 6.3473 11.0013 6.41971 11.0021 6.5C13.6074 5.96641 15.497 3.86223 15.5831 1.23895C15.5752 1.28181 15.5782 1.35404 15.5645 1.40533Z" fill="black"/>
<path opacity="0.1" d="M11.0049 6.25637C11.0155 6.19661 11.0288 6.03044 11.0419 5.92995C11.0515 5.80369 11.0652 5.67957 11.083 5.55762C11.418 3.26075 13.1944 1.73587 15.5831 1.23896C15.5857 1.15962 15.5866 1.08029 15.5858 1C12.9797 1.5337 11.0899 3.63187 11.0049 6.25637Z" fill="white"/>
<path d="M16.5029 12.4583C16.5029 10.4861 17.6382 8.78305 19.2885 7.95456C17.8153 6.5748 15.9224 6.5 15.5861 6.5C14.6921 6.5 14.0541 6.74215 13.4377 6.97624C12.8405 7.20316 12.2764 7.41711 11.4603 7.41711C10.6441 7.41711 10.0801 7.20316 9.48286 6.97624C8.86641 6.74215 8.22847 6.5 7.33445 6.5C6.77127 6.5 1.83337 6.67993 1.83337 12.9171C1.83337 18.0174 5.31408 23 7.33445 23C8.57139 23 9.28275 22.7109 9.91085 22.4557C10.4015 22.2565 10.8259 22.0842 11.4603 22.0842C12.0946 22.0842 12.519 22.2565 13.0097 22.4562C13.6378 22.7109 14.3491 23 15.5856 23C17.0011 23 19.0167 20.5516 20.1667 17.3334C17.9957 16.771 16.5029 14.8047 16.5029 12.4583ZM15.5858 1C12.9003 1.54998 10.9753 3.76365 11.0021 6.5C13.6876 5.94997 15.6126 3.73635 15.5858 1Z" fill="url(#paint0_linear_867_6447)"/>
</g>
<path d="M26.5312 4.70117C27.0166 4.70117 27.3926 4.31836 27.3926 3.85352C27.3926 3.38184 27.0166 2.99902 26.5312 2.99902C26.0527 2.99902 25.6699 3.38184 25.6699 3.85352C25.6699 4.31836 26.0527 4.70117 26.5312 4.70117ZM25.793 13H27.2695V5.80859H25.793V13ZM28.9717 13H30.5029V9.62988H32.6426C34.5771 9.62988 35.917 8.31055 35.917 6.38281V6.36914C35.917 4.43457 34.5771 3.13574 32.6426 3.13574H28.9717V13ZM32.2598 4.42773C33.5928 4.42773 34.3584 5.14551 34.3584 6.37598V6.38965C34.3584 7.62695 33.5928 8.34473 32.2598 8.34473H30.5029V4.42773H32.2598ZM37.1338 13H38.6104V8.83691C38.6104 7.71582 39.2871 6.93652 40.3057 6.93652C41.3447 6.93652 41.9463 7.64746 41.9463 8.83691V13H43.4229V8.55664C43.4229 6.82031 42.4111 5.67188 40.873 5.67188C39.7998 5.67188 39.0273 6.15723 38.6445 6.99121H38.6104V3.13574H37.1338V13ZM47.9482 13.1436C50.0059 13.1436 51.3594 11.7217 51.3594 9.4043V9.39062C51.3594 7.08691 49.9922 5.67188 47.9414 5.67188C45.8975 5.67188 44.5371 7.09375 44.5371 9.39062V9.4043C44.5371 11.7148 45.8838 13.1436 47.9482 13.1436ZM47.9551 11.9062C46.7998 11.9062 46.0479 10.9971 46.0479 9.4043V9.39062C46.0479 7.81836 46.8066 6.90918 47.9414 6.90918C49.0967 6.90918 49.8486 7.81836 49.8486 9.39062V9.4043C49.8486 10.9902 49.1104 11.9062 47.9551 11.9062ZM52.501 13H53.9775V8.80957C53.9775 7.68848 54.6475 6.93652 55.6865 6.93652C56.7119 6.93652 57.2178 7.54492 57.2178 8.625V13H58.7012V8.34473C58.7012 6.69043 57.792 5.67188 56.2129 5.67188C55.126 5.67188 54.3877 6.16406 54.0117 6.89551H53.9775V5.80859H52.501V13ZM63.1992 13.1436C64.9424 13.1436 66.0498 12.1045 66.2822 10.9629L66.2959 10.8877H64.8945L64.874 10.9424C64.6895 11.4824 64.1084 11.9336 63.2334 11.9336C62.0576 11.9336 61.3125 11.1406 61.2852 9.78027H66.3779V9.28125C66.3779 7.12109 65.1406 5.67188 63.124 5.67188C61.1074 5.67188 59.8086 7.17578 59.8086 9.4248V9.43164C59.8086 11.7012 61.0869 13.1436 63.1992 13.1436ZM63.1309 6.88184C64.0947 6.88184 64.792 7.49023 64.915 8.73438H61.3057C61.4355 7.53125 62.1738 6.88184 63.1309 6.88184Z" fill="black"/>
<path d="M25.0889 23H25.8921L26.3467 21.667H28.2471L28.6982 23H29.5015L27.7104 18.0679H26.8833L25.0889 23ZM27.29 18.8848H27.3037L28.0386 21.0518H26.5518L27.29 18.8848ZM29.9595 24.1963H30.6978V22.395H30.7148C30.9268 22.812 31.3403 23.0718 31.8496 23.0718C32.752 23.0718 33.3433 22.3506 33.3433 21.2056V21.2021C33.3433 20.0537 32.7554 19.3359 31.8394 19.3359C31.3267 19.3359 30.9302 19.5957 30.7148 20.0229H30.6978V19.4043H29.9595V24.1963ZM31.6479 22.436C31.0908 22.436 30.6943 21.9507 30.6943 21.2056V21.2021C30.6943 20.4536 31.0874 19.9683 31.6479 19.9683C32.2256 19.9683 32.5913 20.4365 32.5913 21.2021V21.2056C32.5913 21.9644 32.229 22.436 31.6479 22.436ZM33.9175 24.1963H34.6558V22.395H34.6729C34.8848 22.812 35.2983 23.0718 35.8076 23.0718C36.71 23.0718 37.3013 22.3506 37.3013 21.2056V21.2021C37.3013 20.0537 36.7134 19.3359 35.7974 19.3359C35.2847 19.3359 34.8882 19.5957 34.6729 20.0229H34.6558V19.4043H33.9175V24.1963ZM35.606 22.436C35.0488 22.436 34.6523 21.9507 34.6523 21.2056V21.2021C34.6523 20.4536 35.0454 19.9683 35.606 19.9683C36.1836 19.9683 36.5493 20.4365 36.5493 21.2021V21.2056C36.5493 21.9644 36.187 22.436 35.606 22.436ZM37.9028 23H38.6411V18.0679H37.9028V23ZM40.9346 23.0718C41.8062 23.0718 42.3599 22.5522 42.4761 21.9814L42.4829 21.9438H41.7822L41.772 21.9712C41.6797 22.2412 41.3892 22.4668 40.9517 22.4668C40.3638 22.4668 39.9912 22.0703 39.9775 21.3901H42.5239V21.1406C42.5239 20.0605 41.9053 19.3359 40.897 19.3359C39.8887 19.3359 39.2393 20.0879 39.2393 21.2124V21.2158C39.2393 22.3506 39.8784 23.0718 40.9346 23.0718ZM40.9004 19.9409C41.3823 19.9409 41.731 20.2451 41.7925 20.8672H39.9878C40.0527 20.2656 40.4219 19.9409 40.9004 19.9409ZM44.2432 23H45.0464L45.501 21.667H47.4014L47.8525 23H48.6558L46.8647 18.0679H46.0376L44.2432 23ZM46.4443 18.8848H46.458L47.1929 21.0518H45.7061L46.4443 18.8848ZM50.228 23.0718C50.7749 23.0718 51.1406 22.8223 51.3286 22.46H51.3457V23H52.0874V19.4043H51.3457V21.5029C51.3457 22.0635 51.0107 22.436 50.4912 22.436C49.9785 22.436 49.7256 22.1353 49.7256 21.5918V19.4043H48.9873V21.7354C48.9873 22.5625 49.4385 23.0718 50.228 23.0718ZM54.0801 23.0718C54.2305 23.0718 54.3706 23.0547 54.4561 23.041V22.4702C54.4014 22.4771 54.3364 22.4839 54.2578 22.4839C53.9468 22.4839 53.7827 22.3745 53.7827 22.0088V19.9922H54.4561V19.4043H53.7827V18.4678H53.0273V19.4043H52.5112V19.9922H53.0273V22.0532C53.0273 22.771 53.3691 23.0718 54.0801 23.0718ZM55.0952 23H55.8335V20.9185C55.8335 20.3579 56.1719 19.9683 56.6812 19.9683C57.2007 19.9683 57.5015 20.3237 57.5015 20.9185V23H58.2397V20.7783C58.2397 19.9102 57.7339 19.3359 56.9648 19.3359C56.4282 19.3359 56.042 19.5786 55.8506 19.9956H55.8335V18.0679H55.0952V23ZM60.5024 23.0718C61.5312 23.0718 62.208 22.3608 62.208 21.2021V21.1953C62.208 20.0435 61.5244 19.3359 60.499 19.3359C59.4771 19.3359 58.7969 20.0469 58.7969 21.1953V21.2021C58.7969 22.3574 59.4702 23.0718 60.5024 23.0718ZM60.5059 22.4531C59.9282 22.4531 59.5522 21.9985 59.5522 21.2021V21.1953C59.5522 20.4092 59.9316 19.9546 60.499 19.9546C61.0767 19.9546 61.4526 20.4092 61.4526 21.1953V21.2021C61.4526 21.9951 61.0835 22.4531 60.5059 22.4531ZM62.7788 23H63.5171V20.8569C63.5171 20.3203 63.811 20.0093 64.2861 20.0093C64.4297 20.0093 64.5596 20.0264 64.6177 20.0503V19.3633C64.5596 19.353 64.4673 19.3359 64.3613 19.3359C63.9512 19.3359 63.6504 19.5991 63.5342 20.0195H63.5171V19.4043H62.7788V23ZM65.4756 18.8506C65.7183 18.8506 65.9062 18.6592 65.9062 18.4268C65.9062 18.1909 65.7183 17.9995 65.4756 17.9995C65.2363 17.9995 65.0449 18.1909 65.0449 18.4268C65.0449 18.6592 65.2363 18.8506 65.4756 18.8506ZM65.1064 23H65.8447V19.4043H65.1064V23ZM66.5317 23H69.3174V22.4155H67.4238V22.4019L69.2969 19.9102V19.4043H66.5454V19.9922H68.4526V20.0059L66.5317 22.5249V23ZM71.3955 23.0718C72.2671 23.0718 72.8208 22.5522 72.937 21.9814L72.9438 21.9438H72.2432L72.2329 21.9712C72.1406 22.2412 71.8501 22.4668 71.4126 22.4668C70.8247 22.4668 70.4521 22.0703 70.4385 21.3901H72.9849V21.1406C72.9849 20.0605 72.3662 19.3359 71.3579 19.3359C70.3496 19.3359 69.7002 20.0879 69.7002 21.2124V21.2158C69.7002 22.3506 70.3394 23.0718 71.3955 23.0718ZM71.3613 19.9409C71.8433 19.9409 72.1919 20.2451 72.2534 20.8672H70.4487C70.5137 20.2656 70.8828 19.9409 71.3613 19.9409ZM74.9023 23.0718C75.4185 23.0718 75.8149 22.812 76.0303 22.3916H76.0439V23H76.7856V18.0679H76.0439V20.0161H76.0303C75.8149 19.5923 75.4048 19.3359 74.8955 19.3359C73.9932 19.3359 73.3984 20.0537 73.3984 21.1987V21.2021C73.3984 22.3472 73.9863 23.0718 74.9023 23.0718ZM75.0972 22.436C74.5127 22.436 74.1538 21.9678 74.1538 21.2021V21.1987C74.1538 20.4399 74.5161 19.9683 75.0972 19.9683C75.6509 19.9683 76.0474 20.4536 76.0474 21.1987V21.2021C76.0474 21.9507 75.6543 22.436 75.0972 22.436ZM79.0552 23H79.8208V21.1064H80.8735L81.8784 23H82.7603L81.6562 20.9902C82.2476 20.7886 82.6133 20.2554 82.6133 19.5854V19.5786C82.6133 18.6523 81.9775 18.0679 80.9692 18.0679H79.0552V23ZM79.8208 20.4775V18.7104H80.8735C81.4614 18.7104 81.8237 19.0386 81.8237 19.5854V19.5923C81.8237 20.1528 81.4854 20.4775 80.894 20.4775H79.8208ZM84.7871 23.0718C85.6587 23.0718 86.2124 22.5522 86.3286 21.9814L86.3354 21.9438H85.6348L85.6245 21.9712C85.5322 22.2412 85.2417 22.4668 84.8042 22.4668C84.2163 22.4668 83.8438 22.0703 83.8301 21.3901H86.3765V21.1406C86.3765 20.0605 85.7578 19.3359 84.7495 19.3359C83.7412 19.3359 83.0918 20.0879 83.0918 21.2124V21.2158C83.0918 22.3506 83.731 23.0718 84.7871 23.0718ZM84.7529 19.9409C85.2349 19.9409 85.5835 20.2451 85.645 20.8672H83.8403C83.9053 20.2656 84.2744 19.9409 84.7529 19.9409ZM88.2974 23.0718C89.145 23.0718 89.7603 22.6206 89.7603 21.9644V21.9609C89.7603 21.4448 89.48 21.1543 88.7451 20.9834L88.1606 20.8501C87.7744 20.7578 87.6274 20.6074 87.6274 20.3853V20.3818C87.6274 20.0947 87.877 19.9067 88.2734 19.9067C88.6904 19.9067 88.9365 20.1255 88.981 20.4399L88.9844 20.4639H89.6782L89.6748 20.4229C89.6372 19.811 89.1245 19.3359 88.2734 19.3359C87.4463 19.3359 86.8857 19.7769 86.8857 20.4194V20.4229C86.8857 20.9458 87.2241 21.2739 87.9077 21.4312L88.4956 21.5645C88.8818 21.6567 89.0117 21.79 89.0117 22.0225V22.0259C89.0117 22.3164 88.7451 22.501 88.3008 22.501C87.8462 22.501 87.6001 22.3062 87.5317 21.9746L87.5249 21.9404H86.7935L86.7969 21.9712C86.8721 22.6274 87.3984 23.0718 88.2974 23.0718ZM90.3618 23H91.1001V18.0679H90.3618V23ZM91.8862 23H92.6245V18.0679H91.8862V23ZM94.918 23.0718C95.7896 23.0718 96.3433 22.5522 96.4595 21.9814L96.4663 21.9438H95.7656L95.7554 21.9712C95.6631 22.2412 95.3726 22.4668 94.9351 22.4668C94.3472 22.4668 93.9746 22.0703 93.9609 21.3901H96.5073V21.1406C96.5073 20.0605 95.8887 19.3359 94.8804 19.3359C93.8721 19.3359 93.2227 20.0879 93.2227 21.2124V21.2158C93.2227 22.3506 93.8618 23.0718 94.918 23.0718ZM94.8838 19.9409C95.3657 19.9409 95.7144 20.2451 95.7759 20.8672H93.9712C94.0361 20.2656 94.4053 19.9409 94.8838 19.9409ZM97.0815 23H97.8198V20.8569C97.8198 20.3203 98.1138 20.0093 98.5889 20.0093C98.7324 20.0093 98.8623 20.0264 98.9204 20.0503V19.3633C98.8623 19.353 98.77 19.3359 98.6641 19.3359C98.2539 19.3359 97.9531 19.5991 97.8369 20.0195H97.8198V19.4043H97.0815V23Z" fill="black"/>
<defs>
<linearGradient id="paint0_linear_867_6447" x1="3.11668" y1="8.18853" x2="20.6878" y2="16.3821" gradientUnits="userSpaceOnUse">
<stop stop-color="white" stop-opacity="0.2"/>
<stop offset="1" stop-color="white" stop-opacity="0"/>
</linearGradient>
<clipPath id="clip0_867_6447">
<rect width="22" height="22" fill="white" transform="translate(0 1)"/>
</clipPath>
</defs>
</svg>
