<svg width="200" height="48" viewBox="0 0 200 48" fill="none" xmlns="http://www.w3.org/2000/svg">
<path fill-rule="evenodd" clip-rule="evenodd" d="M13.9323 0H27.8386H41.7448L48.7355 12.0187L55.7262 24.0373L48.7355 36.056L41.7448 48.0747H27.8386H13.9323L6.94165 36.056L-0.0490417 24.0373L6.94165 12.0187L13.9323 0V0ZM27.8386 6.79316C37.385 6.79316 45.1274 14.4821 45.1274 23.9627C45.1274 33.4432 37.385 41.1322 27.8386 41.1322C18.2921 41.1322 10.5498 33.4432 10.5498 23.9627C10.5498 14.4821 18.2921 6.79316 27.8386 6.79316Z" fill="#FEFEFE"/>
<path fill-rule="evenodd" clip-rule="evenodd" d="M27.9138 14.4072C33.2508 14.4072 37.5354 18.6623 37.5354 23.9624C37.5354 29.2626 33.2508 33.5176 27.9138 33.5176C22.5769 33.5176 18.2922 29.2626 18.2922 23.9624C18.2922 18.6623 22.5769 14.4072 27.9138 14.4072Z" fill="#60BB22"/>
<path d="M20.9233 19.2599C23.5542 15.4528 28.816 14.4823 32.6496 17.0951C36.4832 19.7078 37.4604 24.9333 34.8295 28.7405C32.1986 32.5476 26.9368 33.5181 23.1031 30.9053C19.2695 28.2926 18.2923 23.0671 20.9233 19.2599Z" fill="#FEFEFE"/>
<path d="M23.78 29.9345C20.5478 27.695 19.7209 23.1414 21.976 19.9314C24.231 16.6468 28.7411 15.8257 32.0486 18.0652C35.356 20.3793 36.1829 24.709 33.9278 27.9936C31.5976 31.2782 27.1626 32.0994 23.8552 29.8599L23.78 29.9345Z" fill="#60BB22"/>
<path d="M25.1314 27.9194C22.9515 26.4264 22.3502 23.4404 23.8536 21.2755C25.357 19.1107 28.3637 18.5881 30.5436 20.0065C32.7235 21.4995 33.3248 24.4855 31.8215 26.6503C30.3181 28.8898 27.3113 29.4124 25.1314 27.9194Z" fill="#20863D"/>
<path d="M31.9733 20.977C32.1236 21.7981 31.5975 22.5446 30.7706 22.6939C29.9437 22.8432 29.192 22.3207 29.0417 21.4995C28.8914 20.6784 29.4176 19.9319 30.2444 19.7826C31.0713 19.6333 31.823 20.1558 31.9733 20.977Z" fill="#FEFEFE"/>
<path d="M29.8684 23.4401C29.9436 23.888 29.6429 24.4105 29.1919 24.4852C28.7409 24.5598 28.2147 24.2612 28.1396 23.8133C28.0644 23.3654 28.3651 22.8429 28.8161 22.7682C29.2671 22.6936 29.7933 22.9922 29.8684 23.4401Z" fill="#FEFEFE"/>
<path fill-rule="evenodd" clip-rule="evenodd" d="M100.828 27.9938C104.887 27.9938 108.119 31.2784 108.119 35.2349C108.119 39.266 104.887 42.4759 100.828 42.4759C96.7686 42.4759 93.5364 39.1913 93.5364 35.2349C93.5364 31.2038 96.7686 27.9938 100.828 27.9938Z" fill="#60BB22"/>
<path d="M95.5663 31.652C97.5207 28.7407 101.505 27.9942 104.436 30.0097C107.368 31.9506 108.119 35.9071 106.09 38.8184C104.136 41.7298 100.152 42.4763 97.22 40.4607C94.2884 38.5198 93.5367 34.5634 95.5663 31.652Z" fill="#FEFEFE"/>
<path d="M97.6697 39.7142C95.1891 37.9973 94.5878 34.5633 96.2415 32.1745C97.9704 29.7111 101.353 29.0392 103.834 30.7562C106.314 32.4731 106.991 35.8324 105.262 38.2959C103.533 40.7593 100.075 41.4312 97.5945 39.7142H97.6697Z" fill="#60BB22"/>
<path d="M98.7218 38.2211C97.068 37.1014 96.617 34.8619 97.7446 33.1449C98.8721 31.5026 101.127 31.0547 102.856 32.1745C104.51 33.2942 104.961 35.5337 103.833 37.2507C102.706 38.9676 100.375 39.3409 98.7218 38.2211Z" fill="#20863D"/>
<path d="M103.911 32.9956C104.061 33.5928 103.61 34.19 103.009 34.3393C102.407 34.4886 101.806 34.0407 101.656 33.4435C101.505 32.8463 101.956 32.2491 102.558 32.0998C103.159 31.9505 103.76 32.3984 103.911 32.9956Z" fill="#FEFEFE"/>
<path d="M102.33 34.7868C102.405 35.16 102.18 35.5333 101.804 35.5333C101.428 35.608 101.127 35.384 101.052 35.0107C100.977 34.6375 101.202 34.2642 101.578 34.2642C101.954 34.1896 102.255 34.4135 102.33 34.7868Z" fill="#FEFEFE"/>
<path fill-rule="evenodd" clip-rule="evenodd" d="M73.4655 28.0684V42.0279H68.8802V28.0684H65.3473V24.0372H76.9985V28.0684H73.4655Z" fill="#FEFEFE"/>
<path fill-rule="evenodd" clip-rule="evenodd" d="M87.2233 42.0279V34.7122C87.2233 33.8911 87.073 33.2192 86.7723 32.7713C86.3964 32.1741 85.7951 31.8755 85.0434 31.8755C84.2166 31.8755 83.6152 32.0995 83.2394 32.622C82.9387 33.0699 82.7883 33.6671 82.7883 34.5629V42.0279H78.7292V24.0372H82.7883V29.7853H82.8635C83.1642 29.1881 83.6904 28.7402 84.3669 28.4416C84.9682 28.2177 85.5696 28.0684 86.3964 28.0684C87.975 28.0684 89.2528 28.5909 90.0797 29.5614C90.6811 30.2332 91.0569 30.9797 91.2072 31.8755C91.2824 32.2488 91.3576 32.622 91.3576 33.1446C91.3576 33.2939 91.3576 33.5178 91.3576 33.8164V42.0279H87.2985H87.2233Z" fill="#FEFEFE"/>
<path fill-rule="evenodd" clip-rule="evenodd" d="M118.867 42.0276V34.6373C118.867 33.7415 118.717 33.1443 118.491 32.6964C118.19 32.1738 117.589 31.8752 116.762 31.8752C115.86 31.8752 115.259 32.1738 114.883 32.6964C114.582 33.1443 114.432 33.8161 114.432 34.7119V42.0276H110.373V28.516H114.131V29.9343H114.207C114.958 28.6653 116.236 28.0681 117.89 28.0681C119.243 28.0681 120.446 28.4413 121.348 29.2625C121.949 29.785 122.325 30.3822 122.625 31.278C122.851 31.9499 122.926 32.6964 122.926 33.6668V42.1023H118.867V42.0276Z" fill="#FEFEFE"/>
<path fill-rule="evenodd" clip-rule="evenodd" d="M139.841 40.9083C139.841 41.1322 139.841 41.2815 139.841 41.5055C139.841 41.9534 139.766 42.3266 139.766 42.6252C139.616 43.4464 139.39 44.1929 139.089 44.7901C138.488 45.8352 137.436 46.6563 136.083 47.2535C134.88 47.7761 133.602 48 132.249 48C130.971 48 129.919 47.7761 128.942 47.4028C127.814 46.9549 126.987 46.2831 126.311 45.3873C125.86 44.7154 125.559 44.0436 125.484 43.2971H130.144C130.52 44.1929 131.347 44.6408 132.474 44.6408C134.654 44.6408 135.782 43.4464 135.782 40.9829V40.535H135.707C135.331 41.1322 134.805 41.6548 134.128 41.9534C133.452 42.252 132.775 42.4013 132.023 42.4013C129.994 42.4013 128.415 41.7294 127.062 40.3111C125.784 38.9674 125.183 37.3251 125.183 35.3095C125.183 33.294 125.784 31.577 127.062 30.1587C128.34 28.7403 129.994 27.9938 132.023 27.9938C132.775 27.9938 133.527 28.1431 134.128 28.3671C134.88 28.6657 135.406 29.1136 135.782 29.7108H135.857V28.4417H139.916V40.8336L139.841 40.9083ZM135.782 35.3095C135.782 34.3391 135.481 33.5179 134.88 32.8461C134.279 32.1742 133.452 31.801 132.474 31.801C131.572 31.801 130.746 32.0996 130.144 32.7714C129.543 33.4433 129.242 34.1898 129.242 35.1602C129.242 36.1307 129.543 36.9518 130.144 37.6237C130.746 38.2955 131.572 38.6688 132.474 38.6688C133.452 38.6688 134.279 38.3702 134.88 37.6983C135.481 37.1011 135.782 36.28 135.782 35.3095Z" fill="#FEFEFE"/>
<path fill-rule="evenodd" clip-rule="evenodd" d="M157.731 42.0279L157.882 28.5163H157.806L153.973 42.0279H150.891L147.057 28.5163H146.982L147.132 42.0279H142.923V24.0372H148.861L152.394 35.832H152.469L156.002 24.0372H161.941V42.0279H157.731Z" fill="#FEFEFE"/>
<path fill-rule="evenodd" clip-rule="evenodd" d="M165.021 27.0979V24.0372H169.08V27.0979H165.021ZM165.021 42.0279V28.5163H169.08V42.0279H165.021Z" fill="#FEFEFE"/>
<path fill-rule="evenodd" clip-rule="evenodd" d="M180.506 42.0276V34.6373C180.506 33.7415 180.356 33.1443 180.131 32.6964C179.83 32.1738 179.229 31.8752 178.402 31.8752C177.5 31.8752 176.898 32.1738 176.522 32.6964C176.222 33.1443 176.071 33.8161 176.071 34.7119V42.0276H172.012V28.516H175.771V29.9343H175.846C176.598 28.6653 177.875 28.0681 179.529 28.0681C180.882 28.0681 182.085 28.4413 182.987 29.2625C183.588 29.785 183.964 30.3822 184.265 31.278C184.49 31.9499 184.566 32.6964 184.566 33.6668V42.1023H180.506V42.0276Z" fill="#FEFEFE"/>
<path fill-rule="evenodd" clip-rule="evenodd" d="M195.915 42.0279V34.7122C195.915 33.8911 195.764 33.2192 195.464 32.7713C195.088 32.1741 194.487 31.8755 193.735 31.8755C192.908 31.8755 192.307 32.0995 191.931 32.622C191.63 33.0699 191.48 33.6671 191.48 34.5629V42.0279H187.421V24.0372H191.48V29.7853H191.555C191.856 29.1881 192.382 28.7402 193.058 28.4416C193.66 28.2177 194.261 28.0684 195.088 28.0684C196.666 28.0684 197.944 28.5909 198.771 29.5614C199.372 30.2332 199.748 30.9797 199.899 31.8755C199.974 32.2488 200.049 32.622 200.049 33.1446C200.049 33.2939 200.049 33.5178 200.049 33.8164V42.0279H195.99H195.915Z" fill="#FEFEFE"/>
<path fill-rule="evenodd" clip-rule="evenodd" d="M101.954 26.5007L100.827 25.157L99.6993 26.5007H95.7153L99.5489 22.4696H102.18L105.863 26.5007H101.954Z" fill="#FEFEFE"/>
<path fill-rule="evenodd" clip-rule="evenodd" d="M74.595 16.7216V15.4526H74.5198C74.2191 16.0498 73.6929 16.423 73.0164 16.7216C72.4902 16.9456 71.8137 17.0949 71.062 17.0949C69.3331 17.0949 67.9049 16.4977 66.8526 15.3033C65.8002 14.1089 65.274 12.6905 65.274 10.9736C65.274 9.25661 65.8002 7.83826 66.8526 6.64386C67.9049 5.44946 69.3331 4.85226 70.9869 4.85226C72.3399 4.85226 73.4674 5.30016 74.3695 6.19596V1.41835H77.8272V16.7216H74.5198H74.595ZM74.595 10.8989C74.595 10.0778 74.2943 9.40591 73.7681 8.80871C73.2419 8.28616 72.4902 7.98756 71.6634 7.98756C70.8365 7.98756 70.16 8.28616 69.5586 8.80871C69.0325 9.33126 68.7318 10.0778 68.7318 10.8989C68.7318 11.7201 69.0325 12.4666 69.5586 12.9891C70.0848 13.5863 70.7613 13.8103 71.6634 13.8103C72.4902 13.8103 73.2419 13.5117 73.7681 12.9891C74.2943 12.3919 74.595 11.7201 74.595 10.8989ZM80.3829 3.95645V1.3437H83.8407V3.95645H80.3829ZM80.3829 16.647V5.15086H83.8407V16.647H80.3829ZM95.116 10.8243C95.116 10.0031 94.8153 9.33126 94.2892 8.73406C93.763 8.21151 93.0113 7.91291 92.1844 7.91291C91.3576 7.91291 90.6811 8.21151 90.0797 8.73406C89.5535 9.25661 89.2529 10.0031 89.2529 10.8243C89.2529 11.6454 89.5535 12.3919 90.0797 12.9145C90.6059 13.5117 91.2824 13.7356 92.1844 13.7356C93.0113 13.7356 93.763 13.437 94.2892 12.9145C94.8153 12.3173 95.116 11.6454 95.116 10.8243ZM98.4234 4.3297V16.647H95.116V15.3779H95.0409C94.7402 15.9751 94.214 16.3484 93.5375 16.647C93.0113 16.8709 92.3348 17.0202 91.5831 17.0202C89.8542 17.0202 88.426 16.423 87.3736 15.2286C86.3213 14.0342 85.7951 12.6159 85.7951 10.8989C85.7951 9.18196 86.3213 7.76361 87.3736 6.56921C88.426 5.37481 89.8542 4.77761 91.5079 4.77761C92.861 4.77761 93.9885 5.22551 94.8905 6.12131V4.3297H92.6355V2.31415H94.8905V1.3437H98.3483V2.31415H99.3255V4.3297H98.3483H98.4234ZM112.856 10.8989C112.856 12.6159 112.254 14.1089 111.052 15.3033C109.849 16.4977 108.421 17.0202 106.617 17.0202C104.813 17.0202 103.385 16.423 102.182 15.3033C100.979 14.1089 100.378 12.6905 100.378 10.8989C100.378 9.10731 100.979 7.68896 102.182 6.49456C103.385 5.30016 104.813 4.77761 106.617 4.77761C108.421 4.77761 109.849 5.37481 111.052 6.49456C112.254 7.68896 112.856 9.10731 112.856 10.8989ZM109.398 10.8989C109.398 10.0778 109.173 9.40591 108.646 8.88336C108.12 8.28616 107.444 7.98756 106.692 7.98756C105.94 7.98756 105.264 8.28616 104.738 8.88336C104.211 9.40591 103.986 10.1524 103.986 10.8989C103.986 11.7201 104.211 12.3919 104.738 12.9145C105.264 13.5117 105.94 13.8103 106.692 13.8103C107.519 13.8103 108.12 13.5117 108.646 12.9145C109.173 12.3173 109.398 11.6454 109.398 10.8989ZM104.963 21.6485V18.5132H108.271V21.6485H104.963ZM107.594 3.4339L106.617 2.2395L105.64 3.4339H102.257L105.489 0H107.744L110.901 3.4339H107.594ZM122.026 16.7216V10.451C122.026 9.70451 121.951 9.18196 121.726 8.80871C121.425 8.36081 120.974 8.13686 120.222 8.13686C119.471 8.13686 118.945 8.36081 118.644 8.80871C118.418 9.18196 118.268 9.77916 118.268 10.5257V16.7963H114.81V5.30016H118.042V6.49456H118.118C118.794 5.44946 119.847 4.85226 121.275 4.85226C122.477 4.85226 123.455 5.15086 124.206 5.82271C124.733 6.27061 125.033 6.79316 125.259 7.53966C125.409 8.06221 125.484 8.73406 125.484 9.55521V16.7216H122.026ZM139.917 15.8258C139.917 15.9751 139.917 16.1991 139.917 16.3484C139.917 16.7216 139.841 17.0202 139.841 17.3188C139.766 18.0653 139.541 18.6625 139.24 19.1851C138.714 20.0809 137.887 20.7527 136.684 21.2753C135.632 21.7232 134.58 21.9471 133.377 21.9471C132.325 21.9471 131.347 21.7978 130.521 21.4246C129.543 21.0513 128.867 20.4541 128.265 19.7076C127.89 19.1104 127.664 18.5132 127.589 17.916H131.573C131.949 18.6625 132.55 19.0358 133.602 19.0358C135.482 19.0358 136.384 17.9907 136.384 15.9005V15.5272H136.308C136.008 16.0498 135.557 16.4977 134.955 16.7963C134.429 17.0949 133.828 17.1695 133.151 17.1695C131.423 17.1695 130.069 16.5723 128.942 15.3779C127.89 14.2582 127.288 12.8398 127.288 11.1229C127.288 9.40591 127.814 7.91291 128.867 6.79316C129.994 5.59876 131.347 4.92691 133.076 4.92691C133.753 4.92691 134.354 5.07621 134.88 5.22551C135.482 5.44946 136.008 5.82271 136.308 6.34526H136.384V5.30016H139.841V15.9005L139.917 15.8258ZM136.459 11.0482C136.459 10.2271 136.233 9.48056 135.707 8.95801C135.181 8.36081 134.504 8.06221 133.678 8.06221C132.926 8.06221 132.249 8.36081 131.723 8.88336C131.197 9.40591 130.896 10.0778 130.896 10.8989C130.896 11.7201 131.122 12.3919 131.648 12.9891C132.174 13.5863 132.851 13.8849 133.678 13.8849C134.504 13.8849 135.181 13.5863 135.707 13.0638C136.233 12.5412 136.534 11.8694 136.534 11.0482H136.459Z" fill="#FEFEFE"/>
</svg>
