<svg xmlns="http://www.w3.org/2000/svg" width="64.252" height="16.252" viewBox="0 0 171.841 43.643" xmlns:v="https://vecta.io/nano"><path d="M64.204 42.601c-3.594-.417-6.498-1.744-8.833-4.037-2.886-2.835-4.418-6.656-4.418-11.021 0-8.776 6.318-15.211 14.919-15.196 2.269.004 4.53.533 6.527 1.529.953.475 2.171 1.286 2.815 1.874.244.223.466.405.495.405s.052-.743.052-1.651v-1.651h1.863 1.863v14.69 14.69h-1.863-1.863v-1.7-1.7l-.341.282c-2.497 2.07-4.771 3.078-7.785 3.453-.66.082-2.833.104-3.431.034zm3.435-3.889c4.503-.756 7.625-3.937 8.515-8.677.206-1.099.212-3.864.01-4.947-.236-1.263-.552-2.232-1.077-3.302-1.551-3.157-4.281-5.072-7.92-5.552-1.261-.166-3.1-.06-4.304.249-3.511.901-6.219 3.446-7.445 6.996-.509 1.475-.612 2.159-.612 4.064 0 1.465.027 1.812.197 2.575 1.02 4.556 4.289 7.808 8.644 8.596.904.164 3.01.162 3.992-.003zm-35.925 3.771c-2.491-.261-4.791-1.07-6.758-2.375-1.1-.73-2.82-2.46-3.57-3.591-1.832-2.762-2.711-6.076-2.581-9.737.117-3.328 1.043-6.17 2.842-8.721.263-.373.935-1.137 1.493-1.698 1.994-2.004 4.397-3.273 7.292-3.852 1.166-.233 3.775-.321 4.988-.169 5.588.703 9.773 4.446 11.212 10.024.35 1.359.508 2.516.569 4.182l.053 1.46H34.909 22.564l.056.868c.249 3.858 2.488 7.316 5.831 9.004 1.58.797 3.087 1.144 4.982 1.146 3.25.004 5.705-.999 7.75-3.165.511-.541 1.664-2.089 1.863-2.502.025-.051 3.249 2.06 3.249 2.127.001.205-1.321 1.963-2.049 2.726-2.692 2.82-6.029 4.21-10.354 4.314-.792.019-1.772 0-2.179-.043zm11.661-18.137c-.701-4.414-3.713-7.614-7.959-8.455-.894-.177-3.205-.156-4.106.037-2.14.458-3.925 1.385-5.407 2.807-1.57 1.505-2.616 3.396-3.176 5.738l-.056.233h10.381 10.381zM155.39 42.477c-6.487-.604-11.303-5-12.607-11.505-.888-4.427-.064-9.043 2.223-12.455 2.191-3.269 5.311-5.292 9.349-6.062 1.141-.217 4.531-.216 5.608.003 2.695.547 4.922 1.72 6.777 3.569 2.675 2.667 4.102 6.438 4.102 10.835v1.146l-12.298.022-12.298.021.023.677c.09 2.667 1.35 5.457 3.328 7.363 1.534 1.479 3.395 2.416 5.567 2.802.965.172 3.038.171 4.008-.001 3.009-.533 5.188-2.012 7.052-4.788.266-.396.515-.711.554-.701a71.42 71.42 0 0 1 3.108 2c.131.124-.663 1.322-1.593 2.403-2.966 3.449-7.685 5.157-12.903 4.671zm11.641-18.004c0-.128-.075-.541-.165-.918-1.018-4.245-4.015-7.073-8.174-7.71-1.585-.243-3.476-.075-5.08.451-3.469 1.137-6.151 4.011-7.071 7.578-.092.357-.168.69-.168.741 0 .065 2.97.092 10.329.092h10.329v-.233zM1 27.501V12.769h8.805 8.805v1.735 1.735l-6.922.022-6.922.022-.021 12.975-.021 12.975H2.863 1zm85.005-5.927V1h1.905 1.905v20.574 20.574H87.91h-1.905zm10.329 5.884v-14.69h1.863 1.863l.004 1.926.004 1.926.314-.381c1.036-1.257 2.102-2.142 3.31-2.745 1.441-.719 2.707-1.034 4.496-1.119 2.064-.098 3.743.222 5.376 1.024 1.734.851 2.98 2.073 4.155 4.074.081.138.13.099.435-.348 1.601-2.345 3.983-3.896 6.967-4.536 1.183-.254 3.783-.28 4.928-.049 2.095.422 3.745 1.273 5.11 2.637 1.453 1.452 2.346 3.201 2.893 5.668l.228 1.026.028 10.139.028 10.139h-1.866-1.866v-9.05l-.088-9.927c-.349-3.475-2.148-5.987-4.959-6.925-1.084-.362-2.249-.482-3.427-.354-3.627.393-5.971 2.356-6.79 5.683-.174.706-.178.912-.207 10.647l-.03 9.927h-1.859-1.859V33.27l-.087-9.946c-.347-4.267-2.689-6.973-6.433-7.428-3.414-.415-6.959 1.579-8.246 4.64-.537 1.277-.507.615-.537 11.6l-.028 10.012h-1.86-1.86v-14.69z" fill="#676c73"/></svg>