<svg width="64" height="64" viewBox="0 0 64 64" fill="none" xmlns="http://www.w3.org/2000/svg">
<path d="M20 15C20.5523 15 21 14.5523 21 14C21 13.4477 20.5523 13 20 13C19.4477 13 19 13.4477 19 14C19 14.5523 19.4477 15 20 15Z" fill="#FF6700"/>
<path d="M24 15C24.5523 15 25 14.5523 25 14C25 13.4477 24.5523 13 24 13C23.4477 13 23 13.4477 23 14C23 14.5523 23.4477 15 24 15Z" fill="#FF6700"/>
<path d="M28 15C28.5523 15 29 14.5523 29 14C29 13.4477 28.5523 13 28 13C27.4477 13 27 13.4477 27 14C27 14.5523 27.4477 15 28 15Z" fill="#FF6700"/>
<path d="M32 15C32.5523 15 33 14.5523 33 14C33 13.4477 32.5523 13 32 13C31.4477 13 31 13.4477 31 14C31 14.5523 31.4477 15 32 15Z" fill="#FF6700"/>
<path d="M38 49C38.5523 49 39 48.5523 39 48C39 47.4477 38.5523 47 38 47C37.4477 47 37 47.4477 37 48C37 48.5523 37.4477 49 38 49Z" fill="#FF6600"/>
<path d="M27 59H37C37.552 59 38 58.553 38 58C38 57.447 37.552 57 37 57H27C26.448 57 26 57.447 26 58C26 58.553 26.448 59 27 59Z" fill="#FF6700"/>
<path d="M48.9999 20C49.5519 20 49.9999 19.553 49.9999 19V6C49.9999 3.243 47.7569 1 44.9999 1H18.9999C16.2429 1 13.9999 3.243 13.9999 6V28H1.99991C1.69191 28 1.40091 28.142 1.21191 28.385C1.02291 28.627 0.954911 28.944 1.02991 29.242L3.34491 38.501C2.53591 39.039 1.99991 39.958 1.99991 41C1.99991 42.654 3.34591 44 4.99991 44C6.30191 44 7.40191 43.161 7.81591 42H13.9999V58C13.9999 60.757 16.2429 63 18.9999 63H44.9999C47.7569 63 49.9999 60.757 49.9999 58V45C49.9999 44.447 49.5519 44 48.9999 44C48.4479 44 47.9999 44.447 47.9999 45V53H15.9999V42H17.1839C17.5979 43.161 18.6979 44 19.9999 44C21.6539 44 22.9999 42.654 22.9999 41C22.9999 40.158 22.6489 39.398 22.0879 38.853L26.8439 23H30.9999C31.5519 23 31.9999 22.553 31.9999 22C31.9999 21.447 31.5519 21 30.9999 21H26.0999C25.6589 21 25.2689 21.29 25.1419 21.713L23.2559 28H15.9999V11H47.9999V19C47.9999 19.553 48.4479 20 48.9999 20ZM10.7809 40L8.28091 30H11.2189L13.7189 40H10.7809ZM6.21891 30L8.71891 40H7.81591C7.43291 38.927 6.46191 38.143 5.28891 38.029L3.28091 30H6.21891ZM4.99991 42C4.44891 42 3.99991 41.552 3.99991 41C3.99991 40.448 4.44891 40 4.99991 40C5.55091 40 5.99991 40.448 5.99991 41C5.99991 41.552 5.55091 42 4.99991 42ZM47.9999 55V58C47.9999 59.654 46.6539 61 44.9999 61H18.9999C17.3459 61 15.9999 59.654 15.9999 58V55H47.9999ZM19.9999 42C19.4489 42 18.9999 41.552 18.9999 41C18.9999 40.448 19.4489 40 19.9999 40C20.5509 40 20.9999 40.448 20.9999 41C20.9999 41.552 20.5509 42 19.9999 42ZM20.2699 37.954L18.2809 30H22.6559L20.2699 37.954ZM16.2189 30L18.3449 38.502C17.8089 38.858 17.4039 39.385 17.1839 40H15.7799L13.2799 30H16.2189ZM15.9999 9V6C15.9999 4.346 17.3459 3 18.9999 3H44.9999C46.6539 3 47.9999 4.346 47.9999 6V9H15.9999Z" fill="#FF6700"/>
<path d="M26 49C26.5523 49 27 48.5523 27 48C27 47.4477 26.5523 47 26 47C25.4477 47 25 47.4477 25 48C25 48.5523 25.4477 49 26 49Z" fill="#FF6700"/>
<path d="M30 49C30.5523 49 31 48.5523 31 48C31 47.4477 30.5523 47 30 47C29.4477 47 29 47.4477 29 48C29 48.5523 29.4477 49 30 49Z" fill="#FF6700"/>
<path d="M34 49C34.5523 49 35 48.5523 35 48C35 47.4477 34.5523 47 34 47C33.4477 47 33 47.4477 33 48C33 48.5523 33.4477 49 34 49Z" fill="#FF6700"/>
<path d="M34 18C34 17.447 33.552 17 33 17H19C18.448 17 18 17.447 18 18C18 18.553 18.448 19 19 19H33C33.552 19 34 18.553 34 18Z" fill="#FF6700"/>
<path d="M30 43H26C25.448 43 25 43.447 25 44C25 44.553 25.448 45 26 45H30C30.552 45 31 44.553 31 44C31 43.447 30.552 43 30 43Z" fill="#FF6700"/>
<path d="M39 44C39 43.447 38.552 43 38 43H34C33.448 43 33 43.447 33 44C33 44.553 33.448 45 34 45H38C38.552 45 39 44.553 39 44Z" fill="#FF6700"/>
<path d="M51 46H47C46.511 46 46.094 45.646 46.014 45.164L45.744 43.545C44.839 43.29 43.968 42.928 43.141 42.464L41.802 43.42C41.405 43.702 40.859 43.658 40.514 43.314L37.686 40.486C37.34 40.14 37.295 39.595 37.58 39.198L38.536 37.859C38.072 37.033 37.71 36.162 37.455 35.256L35.836 34.986C35.354 34.906 35 34.489 35 34V30C35 29.511 35.354 29.094 35.836 29.014L37.455 28.744C37.71 27.839 38.072 26.968 38.536 26.141L37.58 24.802C37.296 24.405 37.341 23.86 37.686 23.514L40.514 20.686C40.859 20.339 41.405 20.295 41.802 20.58L43.141 21.536C43.967 21.072 44.838 20.71 45.744 20.455L46.014 18.836C46.094 18.354 46.511 18 47 18H51C51.489 18 51.906 18.354 51.986 18.836L52.256 20.455C53.161 20.71 54.032 21.072 54.859 21.536L56.198 20.58C56.594 20.296 57.14 20.34 57.486 20.686L60.314 23.514C60.66 23.86 60.705 24.405 60.42 24.802L59.464 26.141C59.928 26.967 60.29 27.838 60.545 28.744L62.164 29.014C62.646 29.094 63 29.511 63 30V34C63 34.489 62.646 34.906 62.164 34.986L60.545 35.256C60.29 36.161 59.928 37.032 59.464 37.859L60.42 39.198C60.704 39.595 60.659 40.14 60.314 40.486L57.486 43.314C57.14 43.659 56.594 43.703 56.198 43.42L54.859 42.464C54.033 42.928 53.162 43.29 52.256 43.545L51.986 45.164C51.906 45.646 51.489 46 51 46ZM62 34H62.01H62Z" fill="#F9920F"/>
<path fill-rule="evenodd" clip-rule="evenodd" d="M45.9999 36.7001L41.7999 32.5001L40.3999 33.9001L45.9999 39.5001L57.9999 27.5001L56.5999 26.1001L45.9999 36.7001Z" fill="white"/>
</svg>
