<?xml version="1.0" encoding="UTF-8"?>
<svg xmlns="http://www.w3.org/2000/svg" xmlns:xlink="http://www.w3.org/1999/xlink" width="96pt" height="18pt" viewBox="0 0 482.54 90.59" version="1.1">
<defs>
<clipPath id="clip1">
  <path d="M 389 0 L 482.539063 0 L 482.539063 90.589844 L 389 90.589844 Z M 389 0 "/>
</clipPath>
<clipPath id="clip2">
  <path d="M 195 0 L 274 0 L 274 90.589844 L 195 90.589844 Z M 195 0 "/>
</clipPath>
<clipPath id="clip3">
  <path d="M 285 0 L 378 0 L 378 90.589844 L 285 90.589844 Z M 285 0 "/>
</clipPath>
<clipPath id="clip4">
  <path d="M 0 0 L 93 0 L 93 90.589844 L 0 90.589844 Z M 0 0 "/>
</clipPath>
<clipPath id="clip5">
  <path d="M 104 0 L 183 0 L 183 90.589844 L 104 90.589844 Z M 104 0 "/>
</clipPath>
</defs>
<g id="surface1">
<g clip-path="url(#clip1)" clip-rule="nonzero">
<path style=" stroke:none;fill-rule:nonzero;fill:rgb(8.999634%,45.899963%,73.699951%);fill-opacity:1;" d="M 460.246094 -0.00390625 L 412.214844 -0.00390625 C 399.898438 -0.00390625 389.917969 9.980469 389.917969 22.292969 L 389.917969 68.292969 C 389.917969 80.609375 399.898438 90.589844 412.214844 90.589844 L 460.246094 90.589844 C 472.558594 90.589844 482.542969 80.609375 482.542969 68.292969 L 482.542969 22.292969 C 482.542969 9.980469 472.558594 -0.00390625 460.246094 -0.00390625 M 457.480469 65.792969 C 457.480469 72.972656 451.660156 78.792969 444.480469 78.792969 L 427.980469 78.792969 C 420.800781 78.792969 414.980469 72.972656 414.980469 65.792969 L 414.980469 24.792969 C 414.980469 17.613281 420.800781 11.792969 427.980469 11.792969 L 444.480469 11.792969 C 451.660156 11.792969 457.480469 17.613281 457.480469 24.792969 L 457.480469 65.792969 "/>
</g>
<g clip-path="url(#clip2)" clip-rule="nonzero">
<path style=" stroke:none;fill-rule:nonzero;fill:rgb(8.999634%,45.899963%,73.699951%);fill-opacity:1;" d="M 233.128906 12.066406 L 272.5 12.066406 C 273.050781 12.066406 273.5 11.617188 273.5 11.066406 L 273.5 0.996094 C 273.5 0.445313 273.050781 -0.00390625 272.5 -0.00390625 L 217.363281 -0.00390625 C 205.046875 -0.00390625 195.066406 9.980469 195.066406 22.292969 L 195.066406 68.292969 C 195.066406 80.609375 205.046875 90.589844 217.363281 90.589844 L 272.5 90.589844 C 273.050781 90.589844 273.5 90.144531 273.5 89.589844 L 273.5 79.523438 C 273.5 78.96875 273.050781 78.523438 272.5 78.523438 L 233.128906 78.523438 C 225.949219 78.523438 220.128906 72.75 220.128906 65.625 L 220.128906 24.960938 C 220.128906 17.835938 225.949219 12.066406 233.128906 12.066406 "/>
</g>
<g clip-path="url(#clip3)" clip-rule="nonzero">
<path style=" stroke:none;fill-rule:nonzero;fill:rgb(8.999634%,45.899963%,73.699951%);fill-opacity:1;" d="M 355.261719 -0.00390625 L 286.335938 -0.00390625 C 285.78125 -0.00390625 285.335938 0.445313 285.335938 0.996094 L 285.335938 89.589844 C 285.335938 90.144531 285.78125 90.589844 286.335938 90.589844 L 309.167969 90.589844 C 309.71875 90.589844 310.167969 90.144531 310.167969 89.589844 L 310.167969 12.066406 L 339.722656 12.066406 C 346.902344 12.066406 352.722656 17.886719 352.722656 25.066406 L 352.722656 89.589844 C 352.722656 90.144531 353.171875 90.589844 353.722656 90.589844 L 376.558594 90.589844 C 377.109375 90.589844 377.558594 90.144531 377.558594 89.589844 L 377.558594 22.292969 C 377.558594 9.980469 367.574219 -0.00390625 355.261719 -0.00390625 "/>
</g>
<g clip-path="url(#clip4)" clip-rule="nonzero">
<path style=" stroke:none;fill-rule:nonzero;fill:rgb(8.999634%,45.899963%,73.699951%);fill-opacity:1;" d="M 91.332031 -0.00390625 L 1 -0.00390625 C 0.449219 -0.00390625 0 0.445313 0 0.996094 L 0 11.066406 C 0 11.617188 0.449219 12.066406 1 12.066406 L 33.359375 12.066406 L 33.359375 89.589844 C 33.359375 90.144531 33.808594 90.589844 34.359375 90.589844 L 57.191406 90.589844 C 57.746094 90.589844 58.191406 90.144531 58.191406 89.589844 L 58.191406 24.960938 C 58.191406 17.835938 64.011719 12.066406 71.191406 12.066406 L 91.332031 12.066406 C 91.886719 12.066406 92.332031 11.617188 92.332031 11.066406 L 92.332031 0.996094 C 92.332031 0.445313 91.886719 -0.00390625 91.332031 -0.00390625 "/>
</g>
<g clip-path="url(#clip5)" clip-rule="nonzero">
<path style=" stroke:none;fill-rule:nonzero;fill:rgb(8.999634%,45.899963%,73.699951%);fill-opacity:1;" d="M 129.273438 52.328125 C 129.273438 51.777344 129.71875 51.328125 130.273438 51.328125 L 181.835938 51.328125 C 182.386719 51.328125 182.835938 50.878906 182.835938 50.328125 L 182.835938 40.257813 C 182.835938 39.707031 182.386719 39.257813 181.835938 39.257813 L 142.273438 39.257813 C 135.09375 39.257813 129.273438 33.484375 129.273438 26.363281 L 129.273438 24.960938 C 129.273438 17.835938 135.09375 12.066406 142.273438 12.066406 L 181.835938 12.066406 C 182.386719 12.066406 182.835938 11.617188 182.835938 11.066406 L 182.835938 0.996094 C 182.835938 0.445313 182.386719 -0.00390625 181.835938 -0.00390625 L 126.640625 -0.00390625 C 114.324219 -0.00390625 104.34375 9.980469 104.34375 22.292969 L 104.34375 68.292969 C 104.34375 80.609375 114.324219 90.589844 126.640625 90.589844 L 181.835938 90.589844 C 182.386719 90.589844 182.835938 90.144531 182.835938 89.589844 L 182.835938 79.523438 C 182.835938 78.96875 182.386719 78.523438 181.835938 78.523438 L 142.253906 78.523438 C 135.082031 78.511719 129.273438 72.742188 129.273438 65.628906 L 129.273438 52.328125 "/>
</g>
</g>
</svg>
