<svg xmlns="http://www.w3.org/2000/svg" width="90" height="36" viewBox="0 0 452.3 180.4" xmlns:v="https://vecta.io/nano"><style><![CDATA[.B{fill-rule:evenodd}.C{fill:rgb(75.78125%,34.910583%,31.762695%)}.D{fill:rgb(10.594177%,9.812927%,9.423828%)}]]></style><defs><clipPath id="A"><path d="M0 0h81v180.398H0zm0 0"/></clipPath><clipPath id="B"><path d="M415 93h37.301v45H415zm0 0"/></clipPath></defs><g clip-path="url(#A)" class="B C"><path d="M21.871 30.469c0 16.211 7.27 28.23 15.113 39.969l10.93 16.836c.68 1.07 1.063 1.844 1.723 2.828.598.891 1.273 1.836 1.809 2.746 3.398 5.77 6.965 13.121 7.723 20.047.336 3.082.031 5.602.027 8.148-.008 3.145-.512 5.266-1.18 7.938-.527 2.117-2.004 5.73-2.004 7.555h-.453c0-2.625-1.848-11.168-2.781-14.062-1.484-4.59-3.312-7.742-5.785-11.516L20.777 68.891c-3.062-5.027-8.922-18.16-8.922-25.676 0-3.75 1.223-4.262 1.82-6.828-2.391 1.602-3.082 2.422-5.121 4.438C3.996 45.328.02 54.031.02 60.969c0 14.578 2.895 21.871 9.406 33.84l28.68 46.887c3.18 6.34 8.805 20.496 8.805 29.438 0 2.117-.309 7.848-.914 9.102 1.445-.523.523.09 1.402-1.328l4.875-7.871c.406-.641.875-1.242 1.281-1.906l22.023-35.336c8.957-15.25 4.523-36.035-2.57-50.219-7.855-15.715-37.48-56.598-37.48-70.41 0-8.375 5.121-10.645 6.828-13.195C36.23 1.395 30.797 5.336 27.414 10.52c-3.004 4.602-5.543 12.445-5.543 19.949zm0 0"/></g><g class="B"><path d="M72.855 58.691c0 6.449.285 8.813 3.035 14.719 6.051 13.02 14.719 19.441 14.719 29.438 0 14.207-2.312 21.758-7.465 34.414-.648 1.594-1.254 2.168-1.641 3.824l15.012-22.773c8.246-14.059 17.613-23.535 6.203-40.777-5.113-7.727-12.961-15.895-14.391-24.762-1.051-6.531 1.621-10.059 7.289-11.379-4.48-3.113-22.762-1.406-22.762 17.297zm0 0" class="C"/><path d="M186.902 138.836l-33.434-66.648h10.516l23.031 48.051 23.027-48.16h10.133zm55.813-34.438l6.535-4.668c-4.777-6.383-15.102-6.684-21.504-4.227-7.418 3.316-10.309 14.074-2.523 19.824 4.73 4.363 19.863 1.699 15.027 11.699-1.215 2.824-9.984 3.613-12.961-.523-2.043 1.734-4.168 3.07-6.211 4.801 6.695 7.109 16.145 6.316 22.262 3.344 7.27-3.758 8.215-14.277 2.492-19.859-4.625-4.426-18.184-2.82-17.012-8.48.566-6.695 11.445-6.066 13.895-1.91zm20.066 33.043l.086-44.215 22.023 17.066 22.531-16.98v44.129l-7.937-5.895V109.53l-14.512 11.008-14.254-11.094v21.766zm53.754-.511l22.32-43.48 22.406 43.48h-9.539l-2.879-5.891h-19.918l-2.895 5.891zm28.988-12.684l-6.605-13.52-6.652 13.52zm25.86-30.551h23.758c7.113 0 12.938 5.824 12.938 12.938 0 5.781-3.918 11.094-9.18 12.738l9.977 17.711h-8.902l-9.59-17.512H379.2v17.512h-7.816zm7.816 18.379h15.352c3.063 0 5.566-2.121 5.566-5.184s-2.504-5.566-5.566-5.566h-15.352zm0 0" class="D"/></g><g clip-path="url(#B)" class="B D"><path d="M415.895 93.781h36.484v7.715h-14.086v35.586h-7.715v-35.586h-14.684zm0 0"/></g></svg>