<?xml version="1.0" encoding="utf-8"?>
<!-- Generator: Adobe Illustrator 16.0.0, SVG Export Plug-In . SVG Version: 6.00 Build 0)  -->
<!DOCTYPE svg PUBLIC "-//W3C//DTD SVG 1.1//EN" "http://www.w3.org/Graphics/SVG/1.1/DTD/svg11.dtd">
<svg version="1.1" id="Layer_1" xmlns="http://www.w3.org/2000/svg" xmlns:xlink="http://www.w3.org/1999/xlink" x="0px" y="0px"
	 width="80px" height="11px" viewBox="0 0 512 79.432" enable-background="new 0 0 512 79.432" xml:space="preserve">
<g>
	<path fill="#7C7C7C" d="M192.248,64.06c-8.551,0.386-14.868,0.05-18.933-1.898c-2.721-1.277-4.704-4.233-4.872-7.61
		c-0.151-2.855-0.101-4.334,1.243-6.03c3.007-3.78,10.87-4.604,18.967-4.906c5.459-0.201,13.809,0.403,19.94,1.109
		c-0.05,5.729-0.437,11.474-1.68,13.977C204.73,63.169,196.901,63.857,192.248,64.06 M222.067,12.645
		c-7.661-10.206-21.503-13.28-35.867-12.541c-14.565,0.756-24.729,3.729-27.316,4.679c-1.613,0.58-1.395,1.923-1.411,2.729
		c-0.067,2.705-0.286,9.668-0.286,12.49c0.017,1.26,1.613,1.839,2.94,1.377c5.309-1.806,15.119-4.712,22.999-5.333
		c8.5-0.655,20.075,0,23.25,4.679c1.528,2.217,1.596,5.611,1.781,9.072c-5.309-0.47-13.171-1.125-20.982-0.706
		c-6.081,0.319-17.724,0.807-24.594,4.343c-5.594,2.855-8.853,5.477-10.601,10.331c-1.411,3.897-1.78,8.602-1.344,12.415
		c1.025,8.735,4.166,13.104,8.417,16.128c6.686,4.771,15.136,7.308,32.607,6.921c23.234-0.47,29.365-7.728,32.439-12.902
		c5.242-8.77,4.334-22.611,4.183-31.112C228.216,31.688,227.678,20.087,222.067,12.645"/>
	<path fill="#7C7C7C" d="M306.005,59.003c-4.133,4.553-11.625,5.358-17.773,5.358c-6.149,0-13.616-0.789-17.749-5.325
		c-4.133-4.569-4.401-10.818-4.401-18.748c0-7.861,0.269-13.977,4.384-18.538c4.133-4.552,10.777-5.333,17.767-5.333
		c7.021,0,13.641,0.781,17.773,5.333c4.1,4.562,4.401,10.677,4.401,18.538C310.407,48.185,310.105,54.467,306.005,59.003
		 M288.232,1.23c-11.727,0-23.427,1.428-30.836,8.483c-7.425,7.031-10.281,17.615-10.281,30.575c0,12.97,2.553,23.368,9.979,30.408
		c7.425,7.021,19.446,8.735,31.138,8.735c11.727,0,23.385-1.445,30.81-8.467c7.392-7.057,10.315-17.707,10.315-30.677
		c0-12.96-2.588-23.3-10.014-30.339C311.953,2.918,299.958,1.23,288.232,1.23"/>
	<path fill="#7C7C7C" d="M510.723,2.616h-16.598c-0.706,0-1.244,0.555-1.244,1.227v73.036c0,0.655,0.538,1.21,1.244,1.21h16.598
		c0.705,0,1.276-0.555,1.276-1.21V3.842C512,3.17,511.428,2.616,510.723,2.616"/>
	<path fill="#7C7C7C" d="M433.614,1.364c-11.356,0-18.58,2.344-22.948,4.511h-3.024c-4.268-2.285-11.826-4.511-23.687-4.511
		c-8.77,0-19.521,0.622-26.173,6.006c-5.477,4.443-6.754,10.356-6.754,22.52v46.955c0,0.672,0.571,1.209,1.277,1.209h16.563
		c0.706,0,1.311-0.537,1.311-1.209v-0.168c0,0,0-29.669,0-38.471c0-6.972-0.302-14.238,1.243-16.951
		c1.243-2.1,3.125-4.46,12.129-4.46c10.752,0,13.271,0.722,14.951,5.317c0.403,1.083,0.605,2.638,0.705,4.528v15.582v34.624
		c0,0.672,0.572,1.209,1.277,1.209h16.565h0.033c0.705,0,1.276-0.537,1.276-1.209V42.221V26.639c0.101-1.89,0.269-3.444,0.673-4.528
		c1.713-4.595,4.232-5.317,14.984-5.317c8.971,0,10.886,2.36,12.096,4.46c1.578,2.713,1.276,9.979,1.276,16.951
		c0,8.802,0,38.471,0,38.471v0.168c0,0.672,0.571,1.209,1.276,1.209h16.564c0.705,0,1.311-0.537,1.311-1.209V32.763
		c0-12.625-0.438-19.093-6.553-24.603C453.202,2.112,442.382,1.364,433.614,1.364"/>
	<path fill="#7C7C7C" d="M125.958,2.616h-16.582c-0.706,0-1.276,0.555-1.276,1.227v73.036c0,0.655,0.571,1.21,1.276,1.21h16.582
		c0.706,0,1.276-0.555,1.276-1.21V3.842C127.234,3.17,126.664,2.616,125.958,2.616"/>
	<path fill="#7C7C7C" d="M56.273,39.734l29.45-35.212c0.638-0.756,0.067-1.89-0.941-1.89H63.548c-0.504,0-0.975,0.218-1.294,0.613
		L42.801,28.16L23.834,3.246c-0.319-0.395-0.79-0.613-1.311-0.613H1.222c-1.008,0-1.579,1.134-0.94,1.89L30.084,40.39L0.248,76.206
		c-0.605,0.772-0.034,1.882,0.958,1.882H22.49c0.521,0,1.008-0.235,1.31-0.639l19.874-24.83l18.832,24.83
		c0.303,0.403,0.79,0.639,1.294,0.639h21.032c1.008,0,1.579-1.109,0.958-1.882L56.273,39.734z"/>
</g>
</svg>
