<svg width="54" height="33" viewBox="0 0 54 33" fill="none" xmlns="http://www.w3.org/2000/svg">
<g clip-path="url(#clip0_14_366)">
<path d="M50 0H4C1.79086 0 0 1.79086 0 4V29C0 31.2091 1.79086 33 4 33H50C52.2091 33 54 31.2091 54 29V4C54 1.79086 52.2091 0 50 0Z" fill="#F3F3F3" stroke="#E4E4E4" stroke-width="2"/>
<path d="M53 6H1V10H53V6Z" fill="#D4D4D4"/>
<path d="M6.28516 18.3484H5.48828V12.3054H6.28516V18.3484ZM12.3904 18.3484H11.5894L8.54712 13.6917V18.3484H7.74609V12.3054H8.54712L11.5977 16.9829V12.3054H12.3904V18.3484ZM17.8564 12.9612H15.9141V18.3484H15.1213V12.9612H13.1831V12.3054H17.8564V12.9612ZM22.1687 15.5552H19.5498V17.6968H22.592V18.3484H18.7529V12.3054H22.5505V12.9612H19.5498V14.9036H22.1687V15.5552ZM25.8003 15.9038H24.3809V18.3484H23.5798V12.3054H25.5803C26.261 12.3054 26.7839 12.4604 27.1492 12.7703C27.5172 13.0802 27.7012 13.5312 27.7012 14.1233C27.7012 14.4996 27.5988 14.8275 27.394 15.1069C27.1921 15.3864 26.9098 15.5953 26.5474 15.7336L27.9668 18.2986V18.3484H27.1118L25.8003 15.9038ZM24.3809 15.2522H25.6052C26.0009 15.2522 26.3149 15.1498 26.5474 14.9451C26.7826 14.7403 26.9001 14.4664 26.9001 14.1233C26.9001 13.7498 26.7881 13.4634 26.564 13.2642C26.3426 13.0649 26.0216 12.9639 25.6011 12.9612H24.3809V15.2522ZM33.4661 18.3484H32.665L29.6228 13.6917V18.3484H28.8218V12.3054H29.6228L32.6733 16.9829V12.3054H33.4661V18.3484ZM38.2971 15.5552H35.6782V17.6968H38.7205V18.3484H34.8813V12.3054H38.679V12.9612H35.6782V14.9036H38.2971V15.5552ZM43.9707 12.9612H42.0283V18.3484H41.2356V12.9612H39.2974V12.3054H43.9707V12.9612ZM46.8096 18.3484V12.3054H48.7852C49.4409 12.3054 49.9334 12.441 50.2627 12.7122C50.5947 12.9833 50.7607 13.3845 50.7607 13.9158C50.7607 14.198 50.6805 14.4484 50.52 14.667C50.3595 14.8828 50.141 15.0502 49.8643 15.1692C50.1908 15.2605 50.4481 15.4348 50.6362 15.6921C50.8271 15.9467 50.9226 16.2511 50.9226 16.6052C50.9226 17.1475 50.7469 17.5736 50.3955 17.8835C50.0441 18.1934 49.5474 18.3484 48.9055 18.3484H46.8096ZM47.6064 15.522V17.6968H48.9221C49.2929 17.6968 49.5848 17.6013 49.7979 17.4104C50.0137 17.2167 50.1216 16.9511 50.1216 16.6135C50.1216 15.8858 49.7259 15.522 48.9346 15.522H47.6064ZM47.6064 14.8828H48.8101C49.1587 14.8828 49.4368 14.7957 49.6443 14.6213C49.8546 14.447 49.9597 14.2104 49.9597 13.9116C49.9597 13.5796 49.8629 13.3389 49.6692 13.1895C49.4755 13.0373 49.1808 12.9612 48.7852 12.9612H47.6064V14.8828ZM55.4424 16.7712H52.9106L52.342 18.3484H51.5203L53.8279 12.3054H54.5251L56.8369 18.3484H56.0193L55.4424 16.7712ZM53.1514 16.1155H55.2058L54.1765 13.2891L53.1514 16.1155ZM62.2947 18.3484H61.4937L58.4514 13.6917V18.3484H57.6504V12.3054H58.4514L61.502 16.9829V12.3054H62.2947V18.3484ZM65.2456 15.5386L64.5068 16.3064V18.3484H63.71V12.3054H64.5068V15.2937L67.1921 12.3054H68.155L65.7769 14.9741L68.3418 18.3484H67.3872L65.2456 15.5386ZM69.894 18.3484H69.0972V12.3054H69.894V18.3484ZM75.9993 18.3484H75.1982L72.156 13.6917V18.3484H71.355V12.3054H72.156L75.2065 16.9829V12.3054H75.9993V18.3484ZM81.8762 17.5557C81.6715 17.849 81.3851 18.0689 81.0171 18.2156C80.6519 18.3595 80.2257 18.4314 79.7388 18.4314C79.2463 18.4314 78.8091 18.3166 78.4272 18.0869C78.0454 17.8545 77.7493 17.5252 77.5391 17.0991C77.3315 16.673 77.225 16.1791 77.2195 15.6174V15.0903C77.2195 14.18 77.4312 13.4744 77.8545 12.9736C78.2806 12.4728 78.8783 12.2224 79.6475 12.2224C80.2783 12.2224 80.7861 12.3843 81.1707 12.708C81.5553 13.029 81.7904 13.4855 81.8762 14.0776H81.0793C80.9299 13.278 80.454 12.8782 79.6516 12.8782C79.1176 12.8782 78.7122 13.0663 78.4355 13.4426C78.1616 13.8162 78.0233 14.3585 78.0205 15.0696V15.5635C78.0205 16.2414 78.1755 16.7809 78.4854 17.1821C78.7952 17.5806 79.2144 17.7798 79.7429 17.7798C80.0417 17.7798 80.3032 17.7466 80.5273 17.6802C80.7515 17.6138 80.9368 17.5017 81.0835 17.344V15.9868H79.6848V15.3394H81.8762V17.5557Z" fill="#333333"/>
</g>
<defs>
<clipPath id="clip0_14_366">
<rect width="54" height="33" fill="white"/>
</clipPath>
</defs>
</svg>
