<svg width="42" height="36" viewBox="0 0 42 36" fill="none" xmlns="http://www.w3.org/2000/svg">
<path fill-rule="evenodd" clip-rule="evenodd" d="M10.5283 0H21H31.4717L36.7359 9L42 18L36.7359 27L31.4717 36H21H10.5283L5.26415 27L0 18L5.26415 9L10.5283 0ZM21 5.08696C28.1887 5.08696 34.0189 10.8447 34.0189 17.9441C34.0189 25.0435 28.1887 30.8012 21 30.8012C13.8113 30.8012 7.98113 25.0435 7.98113 17.9441C7.98113 10.8447 13.8113 5.08696 21 5.08696Z" fill="#FF6700"/>
<g clip-path="url(#clip0_647_4733)">
<path d="M29.625 17C29.85 17 30 16.85 30 16.625C30 16.4 29.85 16.25 29.625 16.25H27V14.75H29.625C29.85 14.75 30 14.6 30 14.375C30 14.15 29.85 14 29.625 14H27V12.5C27 12.05 26.7 11.75 26.25 11.75H24.75V9.125C24.75 8.9 24.6 8.75 24.375 8.75C24.15 8.75 24 8.9 24 9.125V11.75H22.5V9.125C22.5 8.9 22.35 8.75 22.125 8.75C21.9 8.75 21.75 8.9 21.75 9.125V11.75H20.25V9.125C20.25 8.9 20.1 8.75 19.875 8.75C19.65 8.75 19.5 8.9 19.5 9.125V11.75H18V9.125C18 8.9 17.85 8.75 17.625 8.75C17.4 8.75 17.25 8.9 17.25 9.125V11.75H15.75C15.3 11.75 15 12.05 15 12.5V14H12.375C12.15 14 12 14.15 12 14.375C12 14.6 12.15 14.75 12.375 14.75H15V16.25H12.375C12.15 16.25 12 16.4 12 16.625C12 16.85 12.15 17 12.375 17H15V18.5H12.375C12.15 18.5 12 18.65 12 18.875C12 19.1 12.15 19.25 12.375 19.25H15V20.75H12.375C12.15 20.75 12 20.9 12 21.125C12 21.35 12.15 21.5 12.375 21.5H15V23C15 23.45 15.3 23.75 15.75 23.75H17.25V26.375C17.25 26.6 17.4 26.75 17.625 26.75C17.85 26.75 18 26.6 18 26.375V23.75H19.5V26.375C19.5 26.6 19.65 26.75 19.875 26.75C20.1 26.75 20.25 26.6 20.25 26.375V23.75H21.75V26.375C21.75 26.6 21.9 26.75 22.125 26.75C22.35 26.75 22.5 26.6 22.5 26.375V23.75H24V26.375C24 26.6 24.15 26.75 24.375 26.75C24.6 26.75 24.75 26.6 24.75 26.375V23.75H26.25C26.7 23.75 27 23.45 27 23V21.5H29.625C29.85 21.5 30 21.35 30 21.125C30 20.9 29.85 20.75 29.625 20.75H27V19.25H29.625C29.85 19.25 30 19.1 30 18.875C30 18.65 29.85 18.5 29.625 18.5H27V17H29.625ZM25.5 22.25H16.5V13.25H25.5V22.25Z" fill="#FF6700"/>
<path d="M24.75 14H21.75V17H24.75V14ZM24 16.25H22.5V14.75H24V16.25Z" fill="#FF6700"/>
<path d="M20.25 14H17.25V17H20.25V14ZM19.5 16.25H18V14.75H19.5V16.25Z" fill="#FF6700"/>
<path d="M24.75 18.5H21.75V21.5H24.75V18.5ZM24 20.75H22.5V19.25H24V20.75Z" fill="#FF6700"/>
<path d="M20.25 18.5H17.25V21.5H20.25V18.5ZM19.5 20.75H18V19.25H19.5V20.75Z" fill="#FF6700"/>
</g>
<defs>
<clipPath id="clip0_647_4733">
<rect width="18" height="18" fill="white" transform="translate(12 8)"/>
</clipPath>
</defs>
</svg>
