<svg width="22" height="22" viewBox="0 0 22 22" fill="none" xmlns="http://www.w3.org/2000/svg">
<path d="M0.439941 3.63399V3.96003C0.439941 10.8975 4.12098 17.4482 10.0473 21.0553L10.9999 21.6348L11.9525 21.0549C17.8789 17.4482 21.5599 10.8975 21.5599 3.96003V3.63399L10.9999 0.420227L0.439941 3.63399ZM11.4954 20.3038L10.9999 20.6052L10.5045 20.3038C4.9319 16.9114 1.43566 10.7967 1.32302 4.28519L10.9999 1.33983L20.6769 4.28475C20.5642 10.7967 17.068 16.9114 11.4954 20.3038Z" fill="#20863D"/>
<path d="M6.91098 11.1289L6.28882 11.7511L9.6799 15.1422L18.351 6.4711L17.7288 5.84894L9.6799 13.8979L6.91098 11.1289Z" fill="#20863D"/>
</svg>
