<svg width="20" height="20" viewBox="0 0 20 20" fill="none" xmlns="http://www.w3.org/2000/svg">
<path d="M16.518 0H3.482L0 5.571V20H20V5.571L16.518 0ZM19.0653 5.33333H10.3333V0.666667H16.1487L19.0653 5.33333ZM3.85133 0.666667H9.66667V5.33333H0.934667L3.85133 0.666667ZM0.666667 19.3333V6H19.3333V19.3333H0.666667Z" fill="#20863D"/>
<path d="M12 7.66669H8C7.44867 7.66669 7 8.11535 7 8.66669C7 9.21802 7.44867 9.66669 8 9.66669H12C12.5513 9.66669 13 9.21802 13 8.66669C13 8.11535 12.5513 7.66669 12 7.66669ZM12 9.00002H8C7.81633 9.00002 7.66667 8.85069 7.66667 8.66669C7.66667 8.48269 7.81633 8.33335 8 8.33335H12C12.1837 8.33335 12.3333 8.48269 12.3333 8.66669C12.3333 8.85069 12.1837 9.00002 12 9.00002Z" fill="#20863D"/>
<path d="M12.6667 17.3333H7.33333C7.14933 17.3333 7 17.4823 7 17.6666C7 17.851 7.14933 18 7.33333 18H12.6667C12.8507 18 13 17.851 13 17.6666C13 17.4823 12.8507 17.3333 12.6667 17.3333Z" fill="#20863D"/>
</svg>
