<svg width="20" height="29" viewBox="0 0 20 29" fill="none" xmlns="http://www.w3.org/2000/svg">
<path d="M3.1803 0.202332H16.7213C18.459 0.202332 19.9016 1.65233 19.9016 3.43954V25.7628C19.9016 27.55 18.4918 29 16.7213 29H3.1803C1.44259 29 -2.86102e-05 27.55 -2.86102e-05 25.7628V3.43954C-2.86102e-05 1.65233 1.40981 0.202332 3.1803 0.202332ZM0.983578 25.7628C0.983578 27.0105 1.96718 27.9884 3.1803 27.9884H16.7213C17.9344 27.9884 18.918 26.9767 18.918 25.7628V3.43954C18.918 2.19187 17.9344 1.21396 16.7213 1.21396H3.1803C1.96718 1.21396 0.983578 2.22559 0.983578 3.43954V25.7628Z" fill="#20863D"/>
<path d="M5.93425 3.40582H14.0326C14.2949 3.40582 14.5244 3.64187 14.5244 3.91164C14.5244 4.18141 14.2949 4.41745 14.0326 4.41745H5.93425C5.67195 4.41745 5.44245 4.18141 5.44245 3.91164C5.44245 3.64187 5.67195 3.40582 5.93425 3.40582Z" fill="#20863D"/>
<path d="M9.96735 22.7279C10.8854 22.7279 11.6067 23.5035 11.6067 24.414C11.6067 24.8523 11.4428 25.2907 11.1149 25.5942C10.8198 25.8977 10.3936 26.0663 9.96735 26.0663C9.04931 26.0663 8.328 25.2907 8.328 24.3802C8.328 23.4698 9.04931 22.7279 9.96735 22.7279ZM9.93456 25.0884C10.0985 25.0884 10.2624 25.0209 10.3936 24.886C10.5247 24.7512 10.5903 24.5826 10.5903 24.414C10.5903 24.043 10.2952 23.7395 9.93456 23.7395C9.5739 23.7395 9.27882 24.043 9.27882 24.414C9.27882 24.7849 9.5739 25.0884 9.93456 25.0884Z" fill="#20863D"/>
</svg>
