<svg width="20" height="30" viewBox="0 0 20 30" fill="none" xmlns="http://www.w3.org/2000/svg">
<g clip-path="url(#clip0_3:385)">
<path fill-rule="evenodd" clip-rule="evenodd" d="M2.80358 2.71235C6.77318 -1.2198 13.2281 -1.21803 17.2089 2.7118L17.2103 2.71318C20.3802 5.85642 21.1087 10.6611 18.9875 14.5689C18.9874 14.5691 18.9872 14.5693 18.9871 14.5696L10.7802 29.7603C10.6261 30.0454 10.3263 30.2234 10 30.2234C9.67376 30.2234 9.37395 30.0454 9.21991 29.7603L1.01181 14.5674C-1.09447 10.6617 -0.368352 5.8441 2.80358 2.71235ZM15.9592 3.95409C12.6674 0.70539 7.33115 0.707241 4.05421 3.95376L4.05309 3.95487C1.4333 6.54108 0.834955 10.518 2.5727 13.7403L10 27.4881L17.4277 13.7397L17.4286 13.7381C19.1768 10.5181 18.5808 6.55427 15.9592 3.95409ZM12.934 7.04462C11.3053 5.43677 8.68182 5.43677 7.05309 7.04462C5.42637 8.65048 5.42637 11.2341 7.05309 12.84C8.68182 14.4478 11.3053 14.4478 12.934 12.84L12.9361 12.838C14.5589 11.2465 14.5619 8.65162 12.934 7.04462ZM5.80414 5.80154C8.12347 3.51195 11.8636 3.51195 14.183 5.80154C16.5028 8.09166 16.5061 11.8038 14.1819 14.0842C11.8624 16.3727 8.1231 16.3723 5.80414 14.0831C3.48281 11.7915 3.48281 8.09311 5.80414 5.80154Z" fill="white"/>
</g>
<defs>
<clipPath id="clip0_3:385">
<rect width="20" height="30" fill="white"/>
</clipPath>
</defs>
</svg>
