<svg width="54" height="33" viewBox="0 0 54 33" fill="none" xmlns="http://www.w3.org/2000/svg">
<g clip-path="url(#clip0_14_376)">
<path d="M50 0H4C1.79086 0 0 1.79086 0 4V29C0 31.2091 1.79086 33 4 33H50C52.2091 33 54 31.2091 54 29V4C54 1.79086 52.2091 0 50 0Z" fill="#F3F3F3" stroke="#E4E4E4" stroke-width="2"/>
<path fill-rule="evenodd" clip-rule="evenodd" d="M18.998 3H37V12.9986C36.332 13.0103 35.6632 13.0001 34.9949 13.0037V16H17V4.99875H18.998V3ZM19.9992 3.99988C19.9985 4.33174 19.999 4.66385 19.999 4.9957C23.6952 4.99469 27.3914 4.99545 31.0878 4.9952C32.3893 5.00002 33.6911 5.00078 34.9929 5.00027C34.9924 7.33342 34.9962 9.66656 34.9949 11.9997C35.3274 12.0002 35.6599 12.0002 35.9924 11.9997C35.9937 9.33395 35.9911 6.66818 35.9937 4.00242C34.9421 3.99684 33.8904 4.00166 32.8388 3.99988C28.5589 3.99988 24.2789 4.00014 19.9992 3.99988ZM17.9995 6.00041C18 6.60979 17.9992 7.21941 18 7.82904C18.8421 7.53273 19.5302 6.84135 19.8289 6.00041C19.2193 5.99965 18.6094 5.9999 17.9995 6.00041ZM20.8713 6.00117C20.7063 6.64381 20.3766 7.24252 19.9241 7.72723C19.4086 8.28201 18.7327 8.68471 17.9997 8.87387C17.9997 9.95805 17.999 11.042 18 12.1262C18.635 12.2909 19.2282 12.6139 19.7096 13.0595C20.2728 13.577 20.6812 14.2592 20.8726 14.9996C24.2886 15.0001 27.7046 15.0004 31.1208 14.9996C31.284 14.3692 31.603 13.7798 32.0437 13.3005C32.5619 12.7312 33.248 12.3186 33.9931 12.1262C33.9937 11.0422 33.9934 9.9583 33.9934 8.87437C33.4294 8.72686 32.8977 8.45746 32.449 8.08498C31.8025 7.55305 31.3289 6.81342 31.1221 6.00168C27.7051 5.99863 24.2883 5.99965 20.8713 6.00117ZM32.165 5.9999C32.4614 6.84084 33.1505 7.53451 33.9934 7.82727C33.9934 7.2184 33.9931 6.60928 33.9934 6.00041C33.384 5.99939 32.7744 6.00041 32.165 5.9999ZM17.9997 14.9999C18.6094 14.9996 19.219 15.0011 19.8289 14.9991C19.5305 14.1577 18.8414 13.4683 18.0003 13.17C17.999 13.7801 17.9997 14.39 17.9997 14.9999ZM32.164 14.9999C32.7739 15.0001 33.3835 15.0001 33.9931 14.9996C33.9934 14.391 33.9934 13.7821 33.9931 13.1735C33.1495 13.4645 32.4629 14.1604 32.164 14.9999Z" fill="#979797"/>
<path fill-rule="evenodd" clip-rule="evenodd" d="M25.6838 7.01962C26.2828 6.94421 26.9023 7.09173 27.4114 7.41393C27.9896 7.77372 28.4216 8.33587 28.6883 8.95692C29.0982 9.93294 29.0972 11.0742 28.6858 12.0495C28.5122 12.4489 28.2736 12.8216 27.9698 13.1344C27.6079 13.5062 27.149 13.7885 26.6447 13.9172C26.099 14.0592 25.5081 14.0152 24.9886 13.7966C24.4353 13.5673 23.9688 13.1545 23.6383 12.6581C22.8124 11.433 22.7843 9.72626 23.5569 8.46917C23.8853 7.92784 24.3673 7.47132 24.9518 7.21893C25.1845 7.11788 25.4317 7.05008 25.6838 7.01962ZM25.769 8.01696C25.4137 8.07079 25.0825 8.24421 24.8196 8.48694C24.4536 8.82235 24.2091 9.2771 24.0891 9.75596C23.931 10.3973 23.9784 11.0925 24.2447 11.6986C24.4241 12.1046 24.7066 12.4725 25.081 12.7163C25.3772 12.9097 25.7333 13.0199 26.0886 12.9968C26.5173 12.9719 26.9213 12.7635 27.2244 12.4649C27.6279 12.0701 27.8721 11.531 27.9576 10.977C28.0526 10.3539 27.9632 9.6968 27.6688 9.13669C27.4683 8.75532 27.169 8.41813 26.7886 8.21018C26.4805 8.04007 26.1185 7.96339 25.769 8.01696Z" fill="#979797"/>
<path fill-rule="evenodd" clip-rule="evenodd" d="M19.9993 3.99977C24.279 4.00002 28.5589 3.99977 32.8389 3.99977C33.8904 4.00155 34.9422 3.99672 35.9937 4.00231C35.9911 6.66807 35.9937 9.33383 35.9924 11.9996C35.6599 12.0001 35.3274 12.0001 34.9949 11.9996C34.9962 9.66645 34.9924 7.3333 34.9929 5.00016C33.6911 5.00067 32.3894 4.9999 31.0878 4.99508C27.3914 4.99533 23.6952 4.99457 19.999 4.99559C19.999 4.66373 19.9985 4.33162 19.9993 3.99977Z" fill="#F2F2F2"/>
<path fill-rule="evenodd" clip-rule="evenodd" d="M17.9995 6.00024C18.6094 5.99973 19.2193 5.99947 19.829 6.00024C19.5302 6.84117 18.8422 7.53256 18 7.82887C17.9993 7.21924 18 6.60961 17.9995 6.00024Z" fill="#F2F2F2"/>
<path fill-rule="evenodd" clip-rule="evenodd" d="M20.8713 6.00098C24.2883 5.99945 27.7051 5.99844 31.1221 6.00148C31.3289 6.81322 31.8025 7.55285 32.449 8.08479C32.8977 8.45727 33.4295 8.72666 33.9934 8.87418C33.9934 9.95811 33.9937 11.042 33.9932 12.126C33.248 12.3184 32.5619 12.731 32.0437 13.3003C31.6031 13.7796 31.284 14.369 31.1208 14.9994C27.7046 15.0002 24.2886 14.9999 20.8726 14.9994C20.6812 14.259 20.2729 13.5768 19.7097 13.0593C19.2282 12.6137 18.635 12.2907 18 12.126C17.999 11.0418 17.9998 9.95785 17.9998 8.87367C18.7328 8.68451 19.4086 8.28182 19.9241 7.72703C20.3767 7.24232 20.7064 6.64361 20.8713 6.00098ZM25.6838 7.01939C25.4317 7.04986 25.1845 7.11766 24.9518 7.21871C24.3673 7.47109 23.8853 7.92762 23.5569 8.46895C22.7843 9.72604 22.8124 11.4328 23.6383 12.6579C23.9688 13.1543 24.4353 13.5671 24.9886 13.7964C25.5081 14.015 26.099 14.0589 26.6447 13.917C27.149 13.7883 27.6079 13.5059 27.9698 13.1342C28.2736 12.8214 28.5122 12.4487 28.6858 12.0493C29.0972 11.074 29.0982 9.93271 28.6883 8.9567C28.4216 8.33564 27.9896 7.7735 27.4114 7.41371C26.9023 7.0915 26.2828 6.94398 25.6838 7.01939Z" fill="#F2F2F2"/>
<path fill-rule="evenodd" clip-rule="evenodd" d="M32.165 5.99976C32.7744 6.00026 33.384 5.99925 33.9934 6.00026C33.9932 6.60913 33.9934 7.21825 33.9934 7.82712C33.1505 7.53437 32.4614 6.84069 32.165 5.99976Z" fill="#F2F2F2"/>
<path fill-rule="evenodd" clip-rule="evenodd" d="M25.7691 8.01686C26.1185 7.96329 26.4805 8.03997 26.7886 8.21008C27.1691 8.41803 27.4683 8.75522 27.6688 9.13659C27.9632 9.69671 28.0526 10.3538 27.9576 10.9769C27.8721 11.5309 27.6279 12.07 27.2244 12.4648C26.9213 12.7634 26.5173 12.9718 26.0886 12.9967C25.7333 13.0198 25.3772 12.9096 25.081 12.7162C24.7066 12.4724 24.4241 12.1045 24.2447 11.6985C23.9784 11.0924 23.931 10.3972 24.0891 9.75587C24.2092 9.277 24.4536 8.82225 24.8196 8.48684C25.0825 8.24411 25.4137 8.07069 25.7691 8.01686Z" fill="#F2F2F2"/>
<path fill-rule="evenodd" clip-rule="evenodd" d="M17.9998 14.9998C17.9998 14.3899 17.999 13.7801 18.0003 13.1699C18.8414 13.4683 19.5305 14.1576 19.829 14.9991C19.2191 15.0011 18.6094 14.9996 17.9998 14.9998Z" fill="#F2F2F2"/>
<path fill-rule="evenodd" clip-rule="evenodd" d="M32.164 14.9997C32.463 14.1603 33.1495 13.4643 33.9932 13.1733C33.9934 13.782 33.9934 14.3908 33.9932 14.9994C33.3835 14.9999 32.7739 14.9999 32.164 14.9997Z" fill="#F2F2F2"/>
<path fill-rule="evenodd" clip-rule="evenodd" d="M9.24316 28V22.3706H11.2866V21.6587H6.40869V22.3706H8.45215V28H9.24316ZM13.2993 28V21.6587H12.5083V28H13.2993ZM18.8452 27.2881H15.7075V25.1084H18.6826V24.4053H15.7075V22.3706H18.8452V21.6587H14.9165V28H18.8452V27.2881ZM16.4546 20.0547L15.1626 21.0786H16.1382L16.8501 20.4854H16.9204L17.6323 21.0786H18.6079L17.3159 20.0547H16.4546ZM18.7925 19.8569L17.8257 18.7935H16.8765L17.9575 19.8569H18.7925ZM21.0601 28V23.0825H21.1304L24.5713 28H25.3403V21.6587H24.5581V26.5938H24.4878L21.0469 21.6587H20.2778V28H21.0601ZM35.7466 28V21.6587H34.8281L32.6572 26.9058H32.5869L30.416 21.6587H29.4976V28H30.2358V23.1572H30.2886L32.2881 27.9561H32.9561L34.9556 23.1572H35.0083V28H35.7466ZM41.4858 28H42.3164L39.9785 21.6587H39.1963L36.8584 28H37.689L38.3262 26.1851H40.8486L40.9453 26.4597C41.0098 26.6428 41.0837 26.8538 41.1672 27.0925C41.2507 27.3313 41.3247 27.5422 41.3892 27.7253L41.4858 28ZM39.5522 22.6826H39.6226L40.6157 25.5127H38.5591L38.6602 25.2271C38.7275 25.0366 38.8103 24.8008 38.9084 24.5195L39.2029 23.6758C39.301 23.3945 39.3838 23.1587 39.4512 22.9683L39.5522 22.6826ZM37.9878 19.769C37.9878 20.1616 38.1306 20.478 38.4163 20.7183C38.7019 20.9585 39.0923 21.0786 39.5874 21.0786C40.0855 21.0786 40.4766 20.9585 40.7607 20.7183C41.0449 20.478 41.187 20.1616 41.187 19.769H40.5103C40.5103 20.0005 40.4282 20.1851 40.2642 20.3228C40.1001 20.4604 39.8745 20.5293 39.5874 20.5293C39.3032 20.5293 39.0784 20.4604 38.9128 20.3228C38.7473 20.1851 38.6646 20.0005 38.6646 19.769H37.9878ZM39.5874 29.7666C39.7339 29.7666 39.8591 29.7146 39.9631 29.6106C40.0671 29.5066 40.1191 29.3813 40.1191 29.2349C40.1191 29.0884 40.0671 28.9631 39.9631 28.8591C39.8591 28.7551 39.7339 28.7031 39.5874 28.7031C39.4409 28.7031 39.3157 28.7551 39.2117 28.8591C39.1077 28.9631 39.0557 29.0884 39.0557 29.2349C39.0557 29.3813 39.1077 29.5066 39.2117 29.6106C39.3157 29.7146 39.4409 29.7666 39.5874 29.7666ZM45.8672 28V22.3706H47.9106V21.6587H43.0327V22.3706H45.0762V28H45.8672Z" fill="#333333"/>
</g>
<defs>
<clipPath id="clip0_14_376">
<rect width="54" height="33" fill="white"/>
</clipPath>
</defs>
</svg>
