<svg width="42" height="36" viewBox="0 0 42 36" fill="none" xmlns="http://www.w3.org/2000/svg">
<path fill-rule="evenodd" clip-rule="evenodd" d="M10.5283 0H21H31.4717L36.7359 9L42 18L36.7359 27L31.4717 36H21H10.5283L5.26415 27L0 18L5.26415 9L10.5283 0ZM21 5.08696C28.1887 5.08696 34.0189 10.8447 34.0189 17.9441C34.0189 25.0435 28.1887 30.8012 21 30.8012C13.8113 30.8012 7.98113 25.0435 7.98113 17.9441C7.98113 10.8447 13.8113 5.08696 21 5.08696Z" fill="#FF6700"/>
<path d="M27.3803 9.50566V9.5038C26.986 9.18151 26.45 9.00019 25.8908 9H16.1069C14.9448 9.00308 14.0038 9.76815 14 10.7129V25.3472C14.0002 25.8018 14.2233 26.2376 14.6197 26.5582C15.0135 26.88 15.5485 27.0613 16.1069 27.062H25.8931C26.4515 27.0613 26.9865 26.88 27.3803 26.5582C27.7762 26.2381 27.9991 25.803 28 25.3491V10.7148C27.9991 10.2608 27.7762 9.8258 27.3803 9.50566ZM21 25.8995C20.6856 25.8995 20.4308 25.6924 20.4308 25.4368C20.4308 25.1812 20.6856 24.9741 21 24.9741C21.3144 24.9741 21.5692 25.1812 21.5692 25.4368C21.5692 25.6924 21.3144 25.8995 21 25.8995ZM26.3269 22.9943C26.3269 23.6126 25.7104 24.1139 24.9498 24.1139H17.0479C16.2873 24.1139 15.6708 23.6126 15.6708 22.9943V12.0881C15.6708 11.4698 16.2873 10.9685 17.0479 10.9685H24.9521C25.7127 10.9685 26.3292 11.4698 26.3292 12.0881L26.3269 22.9943Z" fill="#FF6700"/>
</svg>
