<svg width="54" height="33" viewBox="0 0 54 33" fill="none" xmlns="http://www.w3.org/2000/svg">
<g clip-path="url(#clip0_14_414)">
<path d="M50 0H4C1.79086 0 0 1.79086 0 4V29C0 31.2091 1.79086 33 4 33H50C52.2091 33 54 31.2091 54 29V4C54 1.79086 52.2091 0 50 0Z" fill="#F2F2F2" stroke="#E4E4E4" stroke-width="2"/>
<path fill-rule="evenodd" clip-rule="evenodd" d="M43.0672 16.2442C43.0672 21.9006 38.4904 26.4861 32.8446 26.4861C27.1988 26.4861 22.622 21.9006 22.622 16.2442C22.622 10.5877 27.1988 6.0022 32.8446 6.0022C38.4904 6.0022 43.0672 10.5877 43.0672 16.2442Z" fill="#F79F1A"/>
<path fill-rule="evenodd" clip-rule="evenodd" d="M30.456 16.2442C30.456 21.9006 25.8792 26.4861 20.2334 26.4861C14.5877 26.4861 10.0108 21.9006 10.0108 16.2442C10.0108 10.5877 14.5877 6.0022 20.2334 6.0022C25.8792 6.0022 30.456 10.5877 30.456 16.2442Z" fill="#EA001B"/>
<path fill-rule="evenodd" clip-rule="evenodd" d="M26.539 8.18164C24.1538 10.0566 22.6228 12.9702 22.6228 16.2432C22.6228 19.5163 24.1538 22.4321 26.539 24.307C28.9242 22.4321 30.4553 19.5163 30.4553 16.2432C30.4553 12.9702 28.9242 10.0566 26.539 8.18164Z" fill="#FF5F01"/>
<path fill-rule="evenodd" clip-rule="evenodd" d="M43.048 21.8159V21.3159H42.9526L42.8428 21.6598L42.733 21.3159H42.6376V21.8159H42.705V21.4388L42.8079 21.7639H42.8777L42.9807 21.4379V21.8159H43.048ZM42.4436 21.8159V21.4012H42.5658V21.3168H42.2546V21.4012H42.3768V21.8159H42.4436Z" fill="#F79F1A"/>
</g>
<defs>
<clipPath id="clip0_14_414">
<rect width="54" height="33" fill="white"/>
</clipPath>
</defs>
</svg>
