<svg width="54" height="33" viewBox="0 0 54 33" fill="none" xmlns="http://www.w3.org/2000/svg">
<g clip-path="url(#clip0_14_355)">
<path d="M50 0H4C1.79086 0 0 1.79086 0 4V29C0 31.2091 1.79086 33 4 33H50C52.2091 33 54 31.2091 54 29V4C54 1.79086 52.2091 0 50 0Z" fill="#F3F3F3" stroke="#E4E4E4" stroke-width="2"/>
<path fill-rule="evenodd" clip-rule="evenodd" d="M7.96387 16V9.11963H10.4614V8.24951H4.49951V9.11963H6.99707V16H7.96387ZM12.9214 9.10889H14.7852C15.2865 9.10889 15.6785 9.23958 15.9614 9.50098C16.2443 9.76237 16.3857 10.1258 16.3857 10.5913C16.3857 11.0675 16.2506 11.4337 15.9802 11.6897C15.7099 11.9457 15.3258 12.0737 14.8281 12.0737H12.9214V9.10889ZM12.9214 12.9331H14.8281L16.4878 16H17.6211L15.8271 12.7827C16.3141 12.6287 16.6955 12.3548 16.9712 11.9609C17.2469 11.5671 17.3848 11.0998 17.3848 10.5591C17.3848 9.86084 17.1601 9.30135 16.7107 8.88062C16.2613 8.45988 15.6624 8.24951 14.9141 8.24951H11.9546V16H12.9214V12.9331ZM24.1792 16H25.1943L22.3369 8.24951H21.3809L18.5234 16H19.5386L20.3174 13.7817H23.4004L23.5186 14.1174C23.5973 14.3412 23.6877 14.599 23.7898 14.8909C23.8918 15.1827 23.9823 15.4405 24.061 15.6643L24.1792 16ZM21.8159 9.50098H21.9019L23.1157 12.96H20.6021L20.7256 12.6108C20.8079 12.3781 20.9091 12.0898 21.0291 11.7461L21.3889 10.7148C21.5089 10.3711 21.61 10.0828 21.6924 9.8501L21.8159 9.50098ZM20.9243 6.43945C21.0711 6.36068 21.2681 6.32129 21.5151 6.32129C21.8661 6.32129 22.0415 6.45198 22.0415 6.71338C22.0415 6.97477 21.8464 7.16276 21.4561 7.27734L21.8481 7.79834C22.1346 7.70524 22.3691 7.55127 22.5518 7.33643C22.7344 7.12158 22.8257 6.89242 22.8257 6.64893C22.8257 6.35172 22.7192 6.11629 22.5061 5.94263C22.293 5.76896 22.0003 5.68213 21.6279 5.68213C21.5026 5.68213 21.3746 5.69198 21.2439 5.71167C21.1132 5.73136 21.0067 5.75911 20.9243 5.79492V6.43945ZM10.8066 24.2754V23.416H7.9502V24.1875H9.93262V24.3584C9.93262 24.9541 9.73812 25.4359 9.34912 25.8037C8.96012 26.1716 8.44987 26.3555 7.81836 26.3555C7.11198 26.3555 6.5529 26.0975 6.14111 25.5815C5.72933 25.0656 5.52344 24.3633 5.52344 23.4746C5.52344 22.599 5.73096 21.9007 6.146 21.3799C6.56104 20.859 7.11686 20.5986 7.81348 20.5986C8.33757 20.5986 8.77376 20.7223 9.12207 20.9697C9.47038 21.2171 9.7194 21.5784 9.86914 22.0537H10.7627C10.6357 21.3538 10.3078 20.8013 9.77881 20.396C9.24983 19.9907 8.59473 19.7881 7.81348 19.7881C6.84993 19.7881 6.07683 20.1242 5.49414 20.7964C4.91146 21.4686 4.62012 22.3613 4.62012 23.4746C4.62012 24.6009 4.90901 25.4977 5.48682 26.165C6.06462 26.8324 6.84016 27.166 7.81348 27.166C8.71517 27.166 9.43945 26.9015 9.98633 26.3726C10.5332 25.8436 10.8066 25.1445 10.8066 24.2754ZM15.3232 19.7881C14.3271 19.7881 13.5386 20.1193 12.9575 20.7817C12.3765 21.4442 12.0859 22.3418 12.0859 23.4746C12.0859 24.6009 12.3732 25.4977 12.9478 26.165C13.5223 26.8324 14.3141 27.166 15.3232 27.166C16.3291 27.166 17.1177 26.8324 17.689 26.165C18.2603 25.4977 18.5459 24.6009 18.5459 23.4746C18.5459 22.345 18.2594 21.4482 17.6865 20.7842C17.1136 20.1201 16.3259 19.7881 15.3232 19.7881ZM15.3232 20.5986C16.0426 20.5986 16.609 20.8574 17.0225 21.375C17.4359 21.8926 17.6426 22.5924 17.6426 23.4746C17.6426 24.347 17.4367 25.0452 17.0249 25.5693C16.6131 26.0934 16.0459 26.3555 15.3232 26.3555C14.5908 26.3555 14.0187 26.0934 13.6069 25.5693C13.1951 25.0452 12.9893 24.347 12.9893 23.4746C12.9893 22.5924 13.1992 21.8926 13.6191 21.375C14.0391 20.8574 14.6071 20.5986 15.3232 20.5986ZM15.8066 19.3096L17.4277 17.8545H16.3242L14.8105 19.3096H15.8066ZM20.0693 19.9541V27H20.9482V24.4854H22.7207C23.3815 24.4854 23.9243 24.2746 24.3491 23.853C24.7739 23.4315 24.9863 22.8919 24.9863 22.2344C24.9863 21.5638 24.7772 21.0161 24.3589 20.5913C23.9406 20.1665 23.3978 19.9541 22.7305 19.9541H20.0693ZM20.9482 20.7354H22.501C23.012 20.7354 23.4035 20.8639 23.6753 21.1211C23.9471 21.3783 24.083 21.7493 24.083 22.2344C24.083 22.6999 23.9447 23.0612 23.668 23.3184C23.3913 23.5755 23.0023 23.7041 22.501 23.7041H20.9482V20.7354Z" fill="#333333"/>
<path fill-rule="evenodd" clip-rule="evenodd" d="M27.656 16.64C27.656 13.64 28.316 11.252 29.636 9.47601C30.956 7.7 32.672 6.81201 34.784 6.81201C36.92 6.81201 38.636 7.7 39.932 9.47601C41.228 11.252 41.888 13.64 41.912 16.64C41.912 19.616 41.258 22.01 39.95 23.822C38.642 25.634 36.92 26.54 34.784 26.54C32.552 26.54 30.806 25.604 29.546 23.732C28.286 21.86 27.656 19.496 27.656 16.64ZM38.384 16.676C38.384 11.948 37.184 9.58401 34.784 9.58401C32.384 9.58401 31.184 11.948 31.184 16.676C31.184 21.404 32.384 23.768 34.784 23.768C37.184 23.768 38.384 21.404 38.384 16.676Z" fill="#D0011B"/>
<path fill-rule="evenodd" clip-rule="evenodd" d="M45.252 10.1177C45.252 9.6372 45.1157 9.24976 44.8433 8.95532C44.5708 8.66089 44.2119 8.51367 43.7666 8.51367C43.3213 8.51367 42.9624 8.66162 42.6899 8.95752C42.4175 9.25342 42.2812 9.64013 42.2812 10.1177C42.2812 10.5952 42.4182 10.9819 42.6921 11.2778C42.9661 11.5737 43.3242 11.7217 43.7666 11.7217C44.2119 11.7217 44.5708 11.5737 44.8433 11.2778C45.1157 10.9819 45.252 10.5952 45.252 10.1177ZM43.7666 10.8999C43.6113 10.8999 43.4883 10.8289 43.3975 10.6868C43.3066 10.5447 43.2612 10.3535 43.2612 10.1133C43.2612 9.87012 43.3066 9.67896 43.3975 9.53979C43.4883 9.40063 43.6113 9.33105 43.7666 9.33105C43.9248 9.33105 44.0479 9.3999 44.1357 9.5376C44.2236 9.67529 44.2676 9.86719 44.2676 10.1133C44.2676 10.3535 44.2229 10.5447 44.1335 10.6868C44.0442 10.8289 43.9219 10.8999 43.7666 10.8999ZM44.2192 15L46.0825 12.0073L48.5171 8.65869H47.2822L45.375 11.6777L42.98 15H44.2192ZM49.1851 13.5366C49.1851 13.0591 49.0488 12.6731 48.7764 12.3787C48.5039 12.0842 48.145 11.937 47.6997 11.937C47.2573 11.937 46.8999 12.0842 46.6274 12.3787C46.355 12.6731 46.2188 13.0591 46.2188 13.5366C46.2188 14.0171 46.355 14.4053 46.6274 14.7012C46.8999 14.9971 47.2573 15.145 47.6997 15.145C48.145 15.145 48.5039 14.9971 48.7764 14.7012C49.0488 14.4053 49.1851 14.0171 49.1851 13.5366ZM47.6997 14.3232C47.5444 14.3232 47.4214 14.2522 47.3306 14.1101C47.2397 13.968 47.1943 13.7769 47.1943 13.5366C47.1943 13.2935 47.2397 13.1023 47.3306 12.9631C47.4214 12.824 47.5444 12.7544 47.6997 12.7544C47.8579 12.7544 47.9817 12.8232 48.071 12.9609C48.1604 13.0986 48.2051 13.2905 48.2051 13.5366C48.2051 13.7769 48.1597 13.968 48.0688 14.1101C47.978 14.2522 47.855 14.3232 47.6997 14.3232Z" fill="#D0011B"/>
</g>
<defs>
<clipPath id="clip0_14_355">
<rect width="54" height="33" fill="white"/>
</clipPath>
</defs>
</svg>
