<svg width="54" height="33" viewBox="0 0 54 33" fill="none" xmlns="http://www.w3.org/2000/svg">
<g clip-path="url(#clip0_14_432)">
<path d="M50 0H4C1.79086 0 0 1.79086 0 4V29C0 31.2091 1.79086 33 4 33H50C52.2091 33 54 31.2091 54 29V4C54 1.79086 52.2091 0 50 0Z" fill="#F3F3F3" stroke="#E4E4E4" stroke-width="2"/>
<path fill-rule="evenodd" clip-rule="evenodd" d="M31.2232 10.2086C32.2116 9.98355 33.2459 9.94647 34.2538 10.0691C34.9039 10.1494 35.5417 10.3057 36.1572 10.515C35.968 11.3343 35.7795 12.1536 35.5891 12.9726C34.8125 12.6416 33.9656 12.4495 33.111 12.426C32.6815 12.4169 32.2419 12.4417 31.8359 12.5822C31.5913 12.6673 31.3572 12.8 31.1995 12.9972C31.067 13.1608 30.9998 13.3765 31.0508 13.5789C31.0955 13.7613 31.2258 13.9139 31.3723 14.0376C31.633 14.2532 31.9403 14.412 32.2448 14.5676C32.9287 14.9084 33.636 15.2226 34.2492 15.6705C34.7728 16.0458 35.2186 16.5418 35.4189 17.1349C35.5824 17.6037 35.5899 18.108 35.5138 18.5922C35.4229 19.1697 35.1768 19.7267 34.7943 20.1904C34.3449 20.7418 33.7217 21.1551 33.0454 21.4346C32.2634 21.759 31.411 21.9154 30.5597 21.9675C29.5997 22.0225 28.6337 21.9394 27.6928 21.7588C27.2328 21.6649 26.7744 21.5509 26.3443 21.3698C26.5396 20.5236 26.7339 19.6775 26.9287 18.8313C27.3243 19.0031 27.7227 19.1727 28.1404 19.2932C28.6191 19.4343 29.1168 19.5174 29.6178 19.548C30.076 19.5727 30.5428 19.5806 30.9916 19.4773C31.3452 19.3972 31.7029 19.259 31.9471 18.999C32.1829 18.7525 32.2492 18.3761 32.0998 18.0755C31.9788 17.8406 31.7566 17.6693 31.5319 17.5223C31.1913 17.3039 30.82 17.1319 30.4499 16.9618C29.7173 16.6245 28.997 16.2256 28.4463 15.655C28.038 15.235 27.7498 14.7038 27.692 14.1364C27.6332 13.534 27.753 12.9163 28.0386 12.3722C28.2526 11.9617 28.5609 11.5963 28.9261 11.2922C29.5728 10.7516 30.3844 10.4047 31.2232 10.2086Z" fill="#243881"/>
<path fill-rule="evenodd" clip-rule="evenodd" d="M7.07687 10.2125C8.89102 10.2112 10.705 10.2121 12.5189 10.2117C12.6751 10.211 12.832 10.224 12.9825 10.2641C13.3033 10.3448 13.5907 10.5317 13.7835 10.783C13.928 10.969 14.022 11.1866 14.0671 11.4115C14.3636 12.8737 14.6598 14.3359 14.9562 15.7981C15.1132 16.5648 15.2639 17.3329 15.4253 18.0989C16.5472 15.4709 17.6671 12.8419 18.7856 10.2125C19.9168 10.2102 21.048 10.2115 22.1791 10.2117C20.434 14.0763 18.6897 17.9415 16.9438 21.8059C15.8072 21.8059 14.6706 21.8033 13.5341 21.8072C12.6827 18.7668 11.8395 15.7245 10.9916 12.6835C10.9153 12.4222 10.8559 12.1481 10.6909 11.9199C10.5199 11.6845 10.2379 11.5539 9.972 11.4313C9.31831 11.1423 8.62589 10.9371 7.92925 10.7586C7.62178 10.6819 7.31249 10.6114 7.0014 10.5479C7.02549 10.4359 7.05319 10.3246 7.07687 10.2125Z" fill="#192164"/>
<path fill-rule="evenodd" clip-rule="evenodd" d="M23.4046 10.9124C23.4596 10.6784 23.5106 10.4434 23.5682 10.21C24.644 10.2133 25.7199 10.2098 26.7957 10.2116C25.9048 14.076 25.0145 17.9408 24.1241 21.8054C23.0474 21.8064 21.9706 21.8054 20.8938 21.8058C21.7314 18.1747 22.5677 14.5436 23.4046 10.9124Z" fill="#28327B"/>
<path fill-rule="evenodd" clip-rule="evenodd" d="M40.244 11.0512C40.4587 10.5646 40.9942 10.2196 41.562 10.2125C42.4988 10.2078 43.4357 10.2112 44.3724 10.2106C45.2425 14.0758 46.1113 17.9411 46.9805 21.8064C45.9845 21.8072 44.9884 21.8063 43.9925 21.8066C43.86 21.2299 43.7312 20.6523 43.6001 20.0752C42.2195 20.0745 40.839 20.0754 39.4586 20.0745C39.233 20.651 39.007 21.2275 38.7844 21.805C37.6539 21.8078 36.5231 21.8063 35.3926 21.8055C37.0094 18.2206 38.6259 14.6355 40.244 11.0512ZM40.3879 17.6957C41.2804 17.6964 42.1731 17.6959 43.0656 17.6959C42.7395 16.2468 42.4144 14.7976 42.0882 13.3485C41.5184 14.7965 40.9546 16.2468 40.3879 17.6957Z" fill="#344490"/>
</g>
<defs>
<clipPath id="clip0_14_432">
<rect width="54" height="33" fill="white"/>
</clipPath>
</defs>
</svg>
