<svg width="42" height="36" viewBox="0 0 42 36" fill="none" xmlns="http://www.w3.org/2000/svg">
<path d="M24.5626 10.3928C24.3215 10.3571 23.4911 10.2856 22.5268 10.2856C20.509 10.2856 19.1251 11.5178 19.1251 13.7767V15.7231H16.8483V18.366H19.1251V25.1428H21.8572V18.366H24.1251L24.4733 15.7231H21.8572V14.0356C21.8572 13.2767 22.0626 12.7499 23.1608 12.7499H24.5626V10.3928Z" fill="#F9920F"/>
<path fill-rule="evenodd" clip-rule="evenodd" d="M10.5283 0H21H31.4717L36.7359 9L42 18L36.7359 27L31.4717 36H21H10.5283L5.26415 27L0 18L5.26415 9L10.5283 0V0ZM21 5.08696C28.1887 5.08696 34.0189 10.8447 34.0189 17.9441C34.0189 25.0435 28.1887 30.8012 21 30.8012C13.8113 30.8012 7.98113 25.0435 7.98113 17.9441C7.98113 10.8447 13.8113 5.08696 21 5.08696Z" fill="#F9920F"/>
</svg>
