<svg width="14" height="19" viewBox="0 0 14 19" fill="#ffffff" xmlns="http://www.w3.org/2000/svg">
<path d="M13.3803 1.38366V1.38179C12.986 1.0595 12.45 0.878185 11.8908 0.877998H2.10689C0.944828 0.881077 0.00378689 1.64615 0 2.5909V17.2252C0.000229508 17.6798 0.223254 18.1156 0.619672 18.4362C1.01345 18.758 1.54855 18.9393 2.10689 18.94H11.8931C12.4515 18.9393 12.9865 18.758 13.3803 18.4362C13.7762 18.1161 13.9991 17.681 14 17.2271V2.59277C13.9991 2.13884 13.7762 1.7038 13.3803 1.38366ZM7 17.7775C6.68563 17.7775 6.43082 17.5704 6.43082 17.3148C6.43082 17.0592 6.68563 16.852 7 16.852C7.31437 16.852 7.56918 17.0592 7.56918 17.3148C7.56918 17.5704 7.31437 17.7775 7 17.7775ZM12.3269 14.8723C12.3269 15.4906 11.7104 15.9919 10.9498 15.9919H3.04787C2.28734 15.9919 1.67082 15.4906 1.67082 14.8723V3.96608C1.67082 3.34776 2.28734 2.84653 3.04787 2.84653H10.9521C11.7127 2.84653 12.3292 3.34776 12.3292 3.96608L12.3269 14.8723Z" fill="#ffffff"/>
</svg>
