<svg width="30" height="30" viewBox="0 0 30 30" fill="none" xmlns="http://www.w3.org/2000/svg">
<circle opacity="0.9" cx="15" cy="15" r="15" fill="url(#paint0_linear_1415_1321)"/>
<path d="M20.0983 10.9173L20.6817 10.375C20.7351 10.3211 20.765 10.2486 20.765 10.1731C20.765 10.0976 20.7351 10.0251 20.6817 9.97118C20.6545 9.94414 20.6223 9.92268 20.5867 9.90804C20.5512 9.89339 20.5131 9.88585 20.4746 9.88585C20.4361 9.88585 20.3979 9.89339 20.3624 9.90804C20.3269 9.92268 20.2946 9.94414 20.2675 9.97118L19.7367 10.4962C18.5743 9.29805 17.0017 8.57186 15.3267 8.45964V7.98079C15.3269 7.93429 15.3149 7.88854 15.2917 7.8481H15.5833C15.6607 7.8481 15.7349 7.81771 15.7896 7.76361C15.8443 7.70952 15.875 7.63615 15.875 7.55964C15.875 7.48314 15.8443 7.40976 15.7896 7.35567C15.7349 7.30157 15.6607 7.27118 15.5833 7.27118H14.4167C14.3393 7.27118 14.2651 7.30157 14.2104 7.35567C14.1557 7.40976 14.125 7.48314 14.125 7.55964C14.125 7.63615 14.1557 7.70952 14.2104 7.76361C14.2651 7.81771 14.3393 7.8481 14.4167 7.8481H14.755C14.7302 7.88819 14.7162 7.93385 14.7142 7.98079V8.45964C13.0116 8.59762 11.4188 9.34657 10.2358 10.5654C9.05288 11.7843 8.3614 13.3889 8.29166 15.0769C8.36343 16.8138 9.09323 18.4604 10.3361 19.6896C11.5789 20.9188 13.2438 21.6406 15 21.7116C16.7588 21.6486 18.4284 20.9293 19.6729 19.6985C20.9174 18.4677 21.6446 16.8165 21.7083 15.0769C21.6821 13.5465 21.1121 12.0739 20.0983 10.9173ZM15 21.1346C13.3949 21.0747 11.872 20.4172 10.7362 19.2939C9.6004 18.1706 8.93562 16.6644 8.87499 15.0769C8.93562 13.4895 9.6004 11.9833 10.7362 10.86C11.872 9.73669 13.3949 9.07922 15 9.01926C16.606 9.07655 18.1305 9.73316 19.2668 10.857C20.4032 11.9809 21.0671 13.4886 21.125 15.0769C21.0671 16.6653 20.4032 18.173 19.2668 19.2969C18.1305 20.4207 16.606 21.0773 15 21.1346Z" fill="#FF6700"/>
<path d="M15 14.2116C14.8706 14.213 14.7432 14.2425 14.6267 14.2981L11.71 10.8366C11.658 10.7879 11.5896 10.7599 11.518 10.7578C11.4464 10.7558 11.3765 10.7799 11.3217 10.8255C11.2669 10.8711 11.231 10.9351 11.2209 11.0053C11.2107 11.0754 11.227 11.1468 11.2667 11.2058L14.1833 14.6673C14.1277 14.7848 14.0979 14.9126 14.0958 15.0423C14.089 15.2136 14.1337 15.3829 14.2243 15.529C14.3149 15.675 14.4473 15.7912 14.6048 15.8628C14.7622 15.9343 14.9375 15.9581 15.1086 15.9309C15.2797 15.9038 15.4388 15.8271 15.5657 15.7105C15.6926 15.5938 15.7817 15.4426 15.8216 15.2758C15.8615 15.1091 15.8505 14.9344 15.7899 14.7738C15.7293 14.6133 15.6219 14.4742 15.4813 14.3741C15.3407 14.274 15.1732 14.2174 15 14.2116ZM15 15.3654C14.9423 15.3654 14.8859 15.3485 14.838 15.3168C14.79 15.2851 14.7526 15.2401 14.7305 15.1873C14.7085 15.1346 14.7027 15.0766 14.7139 15.0207C14.7252 14.9647 14.753 14.9133 14.7938 14.873C14.8346 14.8326 14.8865 14.8052 14.9431 14.794C14.9997 14.7829 15.0583 14.7886 15.1116 14.8105C15.1649 14.8323 15.2105 14.8693 15.2425 14.9167C15.2746 14.9641 15.2917 15.0199 15.2917 15.077C15.2917 15.1535 15.2609 15.2268 15.2062 15.2809C15.1515 15.335 15.0774 15.3654 15 15.3654Z" fill="#FF6700"/>
<path d="M15 10.75C15.0773 10.75 15.1515 10.7196 15.2062 10.6655C15.2609 10.6115 15.2916 10.5381 15.2916 10.4616V9.88465C15.2916 9.80815 15.2609 9.73478 15.2062 9.68068C15.1515 9.62658 15.0773 9.59619 15 9.59619C14.9226 9.59619 14.8484 9.62658 14.7937 9.68068C14.739 9.73478 14.7083 9.80815 14.7083 9.88465V10.4616C14.7083 10.5381 14.739 10.6115 14.7937 10.6655C14.8484 10.7196 14.9226 10.75 15 10.75Z" fill="#FF6700"/>
<path d="M15 19.4039C14.9226 19.4039 14.8484 19.4343 14.7937 19.4884C14.739 19.5425 14.7083 19.6158 14.7083 19.6923V20.2693C14.7083 20.3458 14.739 20.4191 14.7937 20.4732C14.8484 20.5273 14.9226 20.5577 15 20.5577C15.0773 20.5577 15.1515 20.5273 15.2062 20.4732C15.2609 20.4191 15.2916 20.3458 15.2916 20.2693V19.6923C15.2916 19.6158 15.2609 19.5425 15.2062 19.4884C15.1515 19.4343 15.0773 19.4039 15 19.4039Z" fill="#FF6700"/>
<path d="M20.25 14.7885H19.6667C19.5893 14.7885 19.5151 14.8189 19.4604 14.873C19.4057 14.9271 19.375 15.0005 19.375 15.077C19.375 15.1535 19.4057 15.2269 19.4604 15.2809C19.5151 15.335 19.5893 15.3654 19.6667 15.3654H20.25C20.3274 15.3654 20.4015 15.335 20.4562 15.2809C20.5109 15.2269 20.5417 15.1535 20.5417 15.077C20.5417 15.0005 20.5109 14.9271 20.4562 14.873C20.4015 14.8189 20.3274 14.7885 20.25 14.7885Z" fill="#FF6700"/>
<path d="M10.3333 14.7885H9.74998C9.67262 14.7885 9.59844 14.8189 9.54374 14.873C9.48904 14.9271 9.45831 15.0005 9.45831 15.077C9.45831 15.1535 9.48904 15.2269 9.54374 15.2809C9.59844 15.335 9.67262 15.3654 9.74998 15.3654H10.3333C10.4107 15.3654 10.4849 15.335 10.5396 15.2809C10.5943 15.2269 10.625 15.1535 10.625 15.077C10.625 15.0005 10.5943 14.9271 10.5396 14.873C10.4849 14.8189 10.4107 14.7885 10.3333 14.7885Z" fill="#FF6700"/>
<defs>
<linearGradient id="paint0_linear_1415_1321" x1="2.03445" y1="32.0813" x2="29.0162" y2="32.0813" gradientUnits="userSpaceOnUse">
<stop offset="0.006" stop-color="#EEEEEE" stop-opacity="0.8"/>
<stop offset="0.999" stop-color="#F8F8F8"/>
</linearGradient>
</defs>
</svg>
