<svg width="117" height="21" viewBox="0 0 117 21" fill="none" xmlns="http://www.w3.org/2000/svg">
<path d="M17.9667 10.1541L21.6333 4H15.9194L11 11.619L16.1333 12L15.4 13.5238L14.3 15.4286L11.7333 20L22 10.0952H20.5333L17.9667 10.1541Z" fill="white"/>
<path d="M1.05469 17H3.70898V12.0078H8.86816V9.90723H3.70898V6.50586H9.36035V4.31738H1.05469V17Z" fill="white"/>
<path d="M24.0547 17H32.2549V14.8115H26.709V4.31738H24.0547V17ZM33.0195 17H35.8057L36.7637 13.9238H41.2461L42.2041 17H44.9902L40.5693 4.31738H37.4492L33.0195 17ZM38.9785 6.77832H39.0312L40.6309 11.9375H37.3789L38.9785 6.77832ZM50.6592 17.2197C53.8584 17.2197 55.7744 15.6729 55.7744 13.2383V13.2295C55.7744 11.2344 54.5791 10.1533 51.9248 9.62598L50.5801 9.35352C49.1211 9.06348 48.4707 8.59766 48.4707 7.79785V7.78906C48.4707 6.88379 49.2881 6.25977 50.6504 6.25098C51.96 6.25098 52.874 6.85742 53.0059 7.85059L53.0146 7.95605H55.5195L55.5107 7.78906C55.3877 5.56543 53.5859 4.09766 50.6504 4.09766C47.8379 4.09766 45.8164 5.62695 45.8164 7.94727V7.95605C45.8164 9.86328 47.082 11.0586 49.5869 11.5596L50.9229 11.8232C52.4961 12.1484 53.1201 12.5791 53.1201 13.4404V13.4492C53.1201 14.416 52.1973 15.0576 50.7295 15.0576C49.2793 15.0576 48.2334 14.4424 48.0664 13.458L48.0488 13.3613H45.5439L45.5527 13.502C45.7021 15.8398 47.6445 17.2197 50.6592 17.2197ZM57.4004 17H60.0547V11.6562H65.7676V17H68.4219V4.31738H65.7676V9.46777H60.0547V4.31738H57.4004V17Z" fill="white"/>
<path d="M79.4932 17.2109C82.499 17.2109 84.3271 15.7432 84.3271 13.4316V13.4229C84.3271 11.4629 83.2021 10.3994 80.583 9.8457L79.1943 9.55566C77.6123 9.21289 76.8916 8.63281 76.8916 7.68359V7.6748C76.8916 6.56738 77.8936 5.82031 79.4668 5.81152C80.9697 5.81152 81.9893 6.52344 82.165 7.70117L82.1738 7.82422H84.0898L84.0811 7.6748C83.9492 5.54785 82.1387 4.10645 79.4932 4.10645C76.8125 4.10645 74.9053 5.5918 74.8965 7.75391V7.7627C74.8965 9.64355 76.1006 10.7861 78.5879 11.3135L79.9678 11.6035C81.6465 11.9727 82.3408 12.5264 82.3408 13.5459V13.5547C82.3408 14.7412 81.2686 15.5059 79.5723 15.5059C77.876 15.5059 76.707 14.7764 76.5312 13.6074L76.5137 13.4932H74.5977L74.6064 13.625C74.7646 15.8574 76.6455 17.2109 79.4932 17.2109ZM85.0566 17H87.1221L88.291 13.5723H93.1777L94.3379 17H96.4033L91.7979 4.31738H89.6709L85.0566 17ZM90.7168 6.41797H90.752L92.6416 11.9902H88.8184L90.7168 6.41797ZM97.8096 17H105.685V15.3037H99.7783V4.31738H97.8096V17ZM107.372 17H115.423V15.3037H109.341V11.3662H115.098V9.71387H109.341V6.01367H115.423V4.31738H107.372V17Z" fill="white"/>
</svg>
