<svg width="149" height="148" viewBox="0 0 149 148" fill="none" xmlns="http://www.w3.org/2000/svg">
<mask id="mask0_10:3393" style="mask-type:alpha" maskUnits="userSpaceOnUse" x="0" y="0" width="149" height="148">
<path d="M0 3C0 1.34315 1.34315 0 3 0H149V148H0V3Z" fill="#C4C4C4"/>
</mask>
<g mask="url(#mask0_10:3393)">
<path d="M-15.1032 -41.8005V57.9005L233.857 -42.4382L-15.1032 -41.8005Z" fill="url(#paint0_linear_10:3393)"/>
<g style="mix-blend-mode:overlay" opacity="0.35">
<path d="M-15.1032 58.9309V-42.5204H123.676L-15.1032 58.9309Z" fill="#E22727"/>
</g>
<path style="mix-blend-mode:color-dodge" opacity="0.72" d="M233.857 -42.4382L-45.0505 10.0076V-47.6703L233.857 -42.4382Z" fill="url(#paint1_linear_10:3393)"/>
<g style="mix-blend-mode:overlay" opacity="0.29">
<path d="M240.048 -45.2408L233.629 -43.1136L72.4375 -36.75L-18.3811 59.3991L240.048 -45.2408Z" fill="#E22727"/>
</g>
<path d="M-16.1462 63.5442L50.1705 37.5885L-19.8395 96.5924L-16.1462 63.5442Z" fill="#F49739"/>
<g style="mix-blend-mode:overlay" opacity="0.29">
<path d="M-16.1462 63.5442L50.1705 37.5885L-19.8395 96.5924L-16.1462 63.5442Z" fill="#E22727"/>
</g>
<g style="mix-blend-mode:overlay" opacity="0.29">
<g style="mix-blend-mode:overlay" opacity="0.29">
<path d="M-18.0669 81.6618L49.7128 37.7672L-16.147 63.5472L-18.0669 81.6618Z" fill="#E22727"/>
</g>
</g>
<path d="M244.647 -39.7328L-35.8551 52.0563" stroke="white" stroke-width="3" stroke-miterlimit="10"/>
<path d="M226.253 -51.2064L-15.1032 57.9013" stroke="white" stroke-width="2" stroke-miterlimit="10"/>
<path d="M-25.7389 86.4772L42.7772 48.3845L-22.06 118.144L-25.7389 86.4772Z" stroke="white" stroke-miterlimit="10"/>
<path style="mix-blend-mode:screen" opacity="0.43" d="M240.048 -45.2408L-24.819 101.163L-42.293 19.9292L240.048 -45.2408Z" fill="url(#paint2_radial_10:3393)"/>
<path style="mix-blend-mode:screen" opacity="0.43" d="M240.048 -45.2408L-38.6156 75.0028L-80.0045 -12.6555L240.048 -45.2408Z" fill="url(#paint3_radial_10:3393)"/>
</g>
<defs>
<linearGradient id="paint0_linear_10:3393" x1="227.135" y1="216.135" x2="476.095" y2="216.135" gradientUnits="userSpaceOnUse">
<stop stop-color="#FF3F45"/>
<stop offset="0.059" stop-color="#FF5332"/>
<stop offset="0.142" stop-color="#FF6920"/>
<stop offset="0.239" stop-color="#FF7A11"/>
<stop offset="0.36" stop-color="#FF8607"/>
<stop offset="0.53" stop-color="#FF8D01"/>
<stop offset="1" stop-color="#FF8F00"/>
</linearGradient>
<linearGradient id="paint1_linear_10:3393" x1="366.339" y1="213.842" x2="366.339" y2="271.52" gradientUnits="userSpaceOnUse">
<stop stop-color="#F7941E" stop-opacity="0"/>
<stop offset="0.118" stop-color="#F7941E" stop-opacity="0.016"/>
<stop offset="0.244" stop-color="#F7941E" stop-opacity="0.071"/>
<stop offset="0.375" stop-color="#F7941E" stop-opacity="0.157"/>
<stop offset="0.508" stop-color="#F7941E" stop-opacity="0.278"/>
<stop offset="0.644" stop-color="#F7941E" stop-opacity="0.435"/>
<stop offset="0.781" stop-color="#F7941E" stop-opacity="0.627"/>
<stop offset="0.918" stop-color="#F7941E" stop-opacity="0.851"/>
<stop offset="1" stop-color="#F7941E"/>
</linearGradient>
<radialGradient id="paint2_radial_10:3393" cx="0" cy="0" r="1" gradientUnits="userSpaceOnUse" gradientTransform="translate(-11.7461 -81.8289) rotate(180) scale(112.609 112.292)">
<stop stop-color="#262C38"/>
<stop offset="0.244" stop-color="#222732"/>
<stop offset="0.557" stop-color="#171B22"/>
<stop offset="0.906" stop-color="#050608"/>
<stop offset="1"/>
</radialGradient>
<radialGradient id="paint3_radial_10:3393" cx="0" cy="0" r="1" gradientUnits="userSpaceOnUse" gradientTransform="translate(67.303 -68.0449) rotate(180) scale(120.821 120.725)">
<stop stop-color="#262C38"/>
<stop offset="0.244" stop-color="#222732"/>
<stop offset="0.557" stop-color="#171B22"/>
<stop offset="0.906" stop-color="#050608"/>
<stop offset="1"/>
</radialGradient>
</defs>
</svg>
