<svg width="24" height="30" viewBox="0 0 24 30" fill="none" xmlns="http://www.w3.org/2000/svg">
<path d="M21.375 5H18.25V1.875C18.25 1.37772 18.0525 0.900805 17.7008 0.549175C17.3492 0.197544 16.8723 0 16.375 0L7.625 0C7.12772 0 6.65081 0.197544 6.29917 0.549175C5.94754 0.900805 5.75 1.37772 5.75 1.875V5H2.625C2.12772 5 1.65081 5.19754 1.29917 5.54917C0.947544 5.90081 0.75 6.37772 0.75 6.875V28.125C0.75 28.6223 0.947544 29.0992 1.29917 29.4508C1.65081 29.8025 2.12772 30 2.625 30H21.375C21.8723 30 22.3492 29.8025 22.7008 29.4508C23.0525 29.0992 23.25 28.6223 23.25 28.125V6.875C23.25 6.37772 23.0525 5.90081 22.7008 5.54917C22.3492 5.19754 21.8723 5 21.375 5ZM7 1.875C7 1.70924 7.06585 1.55027 7.18306 1.43306C7.30027 1.31585 7.45924 1.25 7.625 1.25H16.375C16.5408 1.25 16.6997 1.31585 16.8169 1.43306C16.9342 1.55027 17 1.70924 17 1.875V5H7V1.875ZM22 28.125C22 28.2908 21.9342 28.4497 21.8169 28.5669C21.6997 28.6842 21.5408 28.75 21.375 28.75H2.625C2.45924 28.75 2.30027 28.6842 2.18306 28.5669C2.06585 28.4497 2 28.2908 2 28.125V6.875C2 6.70924 2.06585 6.55027 2.18306 6.43306C2.30027 6.31585 2.45924 6.25 2.625 6.25H5.75V8.75H5.125C4.95924 8.75 4.80027 8.81585 4.68306 8.93306C4.56585 9.05027 4.5 9.20924 4.5 9.375V11.25H5.75V10H7V11.25H8.25V9.375C8.25 9.20924 8.18415 9.05027 8.06694 8.93306C7.94973 8.81585 7.79076 8.75 7.625 8.75H7V6.25H17V8.75H16.375C16.2092 8.75 16.0503 8.81585 15.9331 8.93306C15.8158 9.05027 15.75 9.20924 15.75 9.375V11.25H17V10H18.25V11.25H19.5V9.375C19.5 9.20924 19.4342 9.05027 19.3169 8.93306C19.1997 8.81585 19.0408 8.75 18.875 8.75H18.25V6.25H21.375C21.5408 6.25 21.6997 6.31585 21.8169 6.43306C21.9342 6.55027 22 6.70924 22 6.875V28.125Z" fill="#FF6700"/>
</svg>
