<svg width="14" height="19" viewBox="0 0 14 19" fill="none" xmlns="http://www.w3.org/2000/svg">
<path d="M13.3803 0.505661V0.503796C12.986 0.181506 12.45 0.000186591 11.8908 0H2.10689C0.944828 0.00307875 0.00378689 0.768148 0 1.7129V16.3472C0.000229508 16.8018 0.223254 17.2376 0.619672 17.5582C1.01345 17.88 1.54855 18.0613 2.10689 18.062H11.8931C12.4515 18.0613 12.9865 17.88 13.3803 17.5582C13.7762 17.2381 13.9991 16.803 14 16.3491V1.71477C13.9991 1.26084 13.7762 0.825805 13.3803 0.505661ZM7 16.8995C6.68563 16.8995 6.43082 16.6924 6.43082 16.4368C6.43082 16.1812 6.68563 15.9741 7 15.9741C7.31437 15.9741 7.56918 16.1812 7.56918 16.4368C7.56918 16.6924 7.31437 16.8995 7 16.8995ZM12.3269 13.9943C12.3269 14.6126 11.7104 15.1139 10.9498 15.1139H3.04787C2.28734 15.1139 1.67082 14.6126 1.67082 13.9943V3.08808C1.67082 2.46976 2.28734 1.96853 3.04787 1.96853H10.9521C11.7127 1.96853 12.3292 2.46976 12.3292 3.08808L12.3269 13.9943Z" fill="#444444"/>
</svg>
