<svg width="18" height="22" viewBox="0 0 18 22" fill="none" xmlns="http://www.w3.org/2000/svg">
<path fill-rule="evenodd" clip-rule="evenodd" d="M16.0435 0H1.95652C0.876422 0.00134278 0.00133747 0.8799 0 1.96429V18.115C0.513778 17.5846 1.21958 17.2855 1.95652 17.2857H16.0435C16.7804 17.2855 17.4862 17.5846 18 18.115V1.96429C17.9987 0.8799 17.1236 0.00134278 16.0435 0ZM2.34784 20.0357C2.34784 20.2527 2.17263 20.4286 1.95653 20.4286C1.74044 20.4286 1.56523 20.2527 1.56523 20.0357C1.56523 19.8188 1.74044 19.6429 1.95653 19.6429C2.17263 19.6429 2.34784 19.8188 2.34784 20.0357ZM16.4348 19.6429H14.087V20.4286H16.4348V19.6429ZM9.3913 19.9431L9.63319 20.4286H11.4972L11.7391 19.9431V19.6429H9.3913V19.9431ZM1.95652 18.0714H16.0435C17.124 18.0714 18 18.9509 18 20.0357C18 21.1205 17.124 22 16.0435 22H1.95652C0.87604 22 0 21.1205 0 20.0357C0 18.9509 0.87604 18.0714 1.95652 18.0714ZM0.782609 20.0357C0.782609 20.6866 1.30823 21.2143 1.95652 21.2143C2.60481 21.2143 3.13043 20.6866 3.13043 20.0357C3.13043 19.3849 2.60481 18.8571 1.95652 18.8571C1.30823 18.8571 0.782609 19.3849 0.782609 20.0357ZM3.91304 20.4286H4.69565V19.6429H3.91304V20.4286ZM5.47826 20.4286H6.26087V19.6429H5.47826V20.4286ZM7.04348 20.4286H7.82609V19.6429H7.04348V20.4286ZM12.4826 20.2112C12.5089 20.1566 12.5223 20.0965 12.5217 20.0357V19.25C12.5217 19.033 12.3465 18.8571 12.1304 18.8571H9C8.7839 18.8571 8.6087 19.033 8.6087 19.25V20.0357C8.60812 20.0965 8.6215 20.1566 8.64786 20.2112L9.03917 20.9969C9.10566 21.1308 9.24227 21.2151 9.3913 21.2143H11.7391C11.8882 21.2151 12.0248 21.1308 12.0913 20.9969L12.4826 20.2112ZM16.8261 21.2143C17.0422 21.2143 17.2174 21.0384 17.2174 20.8214V19.25C17.2174 19.033 17.0422 18.8571 16.8261 18.8571H13.6957C13.4796 18.8571 13.3043 19.033 13.3043 19.25V20.8214C13.3043 21.0384 13.4796 21.2143 13.6957 21.2143H16.8261Z" fill="#444444"/>
</svg>
