<svg width="24" height="20" viewBox="0 0 24 20" fill="none" xmlns="http://www.w3.org/2000/svg">
<path d="M22.6473 10.1556C22.5459 10.2796 22.4192 10.3796 22.276 10.4486C22.1328 10.5177 21.9766 10.5542 21.8182 10.5556C21.5633 10.5561 21.3163 10.4657 21.12 10.3L20.7273 10V17.2222C20.7273 17.8116 20.4974 18.3768 20.0882 18.7936C19.6791 19.2103 19.1241 19.4445 18.5455 19.4445H15.2727C14.9834 19.4445 14.7059 19.3274 14.5013 19.119C14.2967 18.9106 14.1818 18.628 14.1818 18.3333V13.8889C14.1818 13.5942 14.0669 13.3116 13.8623 13.1032C13.6577 12.8949 13.3802 12.7778 13.0909 12.7778H10.9091C10.6198 12.7778 10.3423 12.8949 10.1377 13.1032C9.93311 13.3116 9.81818 13.5942 9.81818 13.8889V18.3333C9.81818 18.628 9.70324 18.9106 9.49866 19.119C9.29407 19.3274 9.0166 19.4445 8.72727 19.4445H5.45454C4.87589 19.4445 4.32093 19.2103 3.91176 18.7936C3.50259 18.3768 3.27272 17.8116 3.27272 17.2222V10L2.88 10.3333C2.65721 10.5219 2.37 10.6127 2.08153 10.5856C1.79307 10.5585 1.52698 10.4158 1.34181 10.1889C1.15664 9.96199 1.06756 9.66946 1.09415 9.37565C1.12075 9.08185 1.26085 8.81083 1.48363 8.62223L9.96 1.35557C10.5268 0.856697 11.2509 0.582184 12 0.582184C12.7491 0.582184 13.4732 0.856697 14.04 1.35557L22.5164 8.62223C22.7283 8.81117 22.8603 9.07628 22.8847 9.36208C22.9091 9.64787 22.824 9.93221 22.6473 10.1556Z" fill="white" stroke="#111111"/>
</svg>
